<svg width="64" height="22" fill="none" xmlns="http://www.w3.org/2000/svg"><rect width="64" height="22" rx="2" fill="url(#prefix__paint0_linear_242_45)"/><path d="M11.315 8V4.78h.545v2.8h1.65V8h-2.195zm2.651-2.865v-.45h.595v.45h-.595zM14.011 8V6.045h-.36l.05-.415h.855V8h-.545zm1.181 0V5.63h.5l.025.25c.107-.083.233-.153.38-.21.15-.06.315-.09.495-.09.307 0 .53.072.67.215.14.143.21.367.21.67V8h-.54V6.49c0-.183-.038-.312-.115-.385-.073-.073-.213-.11-.42-.11a.941.941 0 00-.66.27V8h-.545zm3.746.05c-.284 0-.502-.078-.655-.235-.15-.157-.225-.387-.225-.69V5.63h.545v1.495c0 .177.043.307.13.39.086.083.22.125.4.125a.907.907 0 00.37-.075.963.963 0 00.295-.2V5.63h.54V8h-.495l-.025-.245a1.48 1.48 0 01-.38.21 1.38 1.38 0 01-.5.085zM20.632 8l.905-1.205-.87-1.165h.585l.58.79.58-.79h.585l-.865 1.165.9 1.205h-.59l-.61-.825-.61.825h-.59zm4.993.05c-.417 0-.752-.053-1.005-.16v-.48c.143.053.297.097.46.13.167.033.332.05.495.05.257 0 .448-.03.575-.09.13-.06.195-.18.195-.36a.412.412 0 00-.08-.265.608.608 0 00-.265-.17 3.901 3.901 0 00-.51-.155c-.347-.09-.59-.203-.73-.34-.14-.14-.21-.332-.21-.575 0-.283.103-.505.31-.665.207-.16.515-.24.925-.24.187 0 .362.013.525.04.167.027.297.057.39.09v.48a2.34 2.34 0 00-.84-.145c-.24 0-.427.032-.56.095-.133.063-.2.178-.2.345 0 .097.023.175.07.235.047.06.127.112.24.155.117.043.277.092.48.145.263.067.467.147.61.24.147.09.248.197.305.32.06.12.09.257.09.41a.803.803 0 01-.315.67c-.21.16-.528.24-.955.24zm2.629 0c-.283 0-.502-.078-.655-.235-.15-.157-.225-.387-.225-.69V5.63h.545v1.495c0 .177.043.307.13.39.087.083.22.125.4.125a.906.906 0 00.37-.075.961.961 0 00.295-.2V5.63h.54V8h-.495l-.025-.245a1.478 1.478 0 01-.38.21 1.38 1.38 0 01-.5.085zm2.036 1.03V5.63h.47l.03.235a1.07 1.07 0 01.35-.215c.126-.047.276-.07.45-.07.34 0 .605.093.795.28.19.183.285.488.285.915 0 .427-.099.747-.295.96-.197.21-.465.315-.805.315a1.31 1.31 0 01-.735-.2v1.23h-.545zm1.14-1.44c.46 0 .69-.29.69-.87 0-.28-.052-.478-.155-.595-.104-.12-.277-.18-.52-.18a.82.82 0 00-.61.25V7.43c.076.063.161.115.255.155.096.037.21.055.34.055zm1.77 1.44V5.63h.47l.03.235c.106-.097.223-.168.35-.215.126-.047.276-.07.45-.07.34 0 .605.093.795.28.19.183.285.488.285.915 0 .427-.099.747-.295.96-.197.21-.465.315-.805.315a1.31 1.31 0 01-.735-.2v1.23H33.2zm1.14-1.44c.46 0 .69-.29.69-.87 0-.28-.052-.478-.155-.595-.104-.12-.277-.18-.52-.18a.82.82 0 00-.61.25V7.43c.076.063.161.115.255.155.096.037.21.055.34.055zm2.905.41c-.427 0-.74-.107-.94-.32-.197-.213-.295-.518-.295-.915s.1-.702.3-.915c.2-.213.512-.32.935-.32.427 0 .74.107.94.32.2.213.3.518.3.915s-.1.702-.3.915c-.197.213-.51.32-.94.32zm0-.46c.25 0 .427-.06.53-.18.107-.123.16-.322.16-.595 0-.273-.053-.47-.16-.59-.103-.12-.28-.18-.53-.18-.247 0-.423.06-.53.18-.103.12-.155.317-.155.59 0 .273.052.472.155.595.107.12.283.18.53.18zm1.77.41V5.63h.5l.03.275c.113-.073.248-.14.405-.2.157-.06.312-.102.465-.125v.415a2.694 2.694 0 00-.305.075 2.73 2.73 0 00-.305.105 1.544 1.544 0 00-.245.115V8h-.545zm2.702.05c-.253 0-.443-.067-.57-.2-.123-.137-.185-.322-.185-.555v-1.24h-.35V5.63h.35v-.545l.54-.165v.71h.63l-.035.425h-.595v1.21c0 .137.032.233.095.29.063.053.167.08.31.08.09 0 .185-.017.285-.05v.385c-.13.053-.288.08-.475.08zM11.21 12v-1.932h1.266v.195h-1.02v.675h.909v.192h-.909V12h-.246zm1.992.03c-.17 0-.299-.047-.387-.141-.086-.094-.129-.231-.129-.411v-.9h.246v.909c0 .118.03.205.087.261.06.056.152.084.276.084a.65.65 0 00.45-.18v-1.074h.246V12h-.222l-.015-.162a.866.866 0 01-.552.192zm1.52 0a.33.33 0 01-.229-.075c-.054-.052-.08-.139-.08-.261V9.978h.245v1.689c0 .06.01.101.03.123.02.022.051.033.093.033a.51.51 0 00.135-.018V12a.422.422 0 01-.096.024.798.798 0 01-.099.006zm.711 0a.33.33 0 01-.228-.075c-.054-.052-.08-.139-.08-.261V9.978h.245v1.689c0 .06.01.101.03.123.02.022.051.033.093.033a.51.51 0 00.135-.018V12a.422.422 0 01-.096.024.798.798 0 01-.099.006zm1.738 0c-.24 0-.434-.03-.582-.09v-.219c.084.032.173.057.267.075.096.016.194.024.294.024.172 0 .3-.023.387-.069.086-.048.129-.133.129-.255a.276.276 0 00-.054-.18.366.366 0 00-.171-.114 2.389 2.389 0 00-.321-.096c-.212-.052-.361-.119-.447-.201a.448.448 0 01-.13-.336c0-.164.06-.293.178-.387.118-.096.298-.144.54-.144a1.9 1.9 0 01.534.075v.216a1.334 1.334 0 00-.234-.06 1.586 1.586 0 00-.261-.021.803.803 0 00-.378.072c-.088.048-.132.131-.132.249 0 .066.015.12.045.162.032.04.085.075.159.105.074.028.177.058.309.09a1.3 1.3 0 01.369.138.46.46 0 01.186.186.543.543 0 01.054.246c0 .17-.062.302-.186.396-.124.092-.31.138-.555.138zm1.586 0c-.17 0-.3-.047-.387-.141-.086-.094-.13-.231-.13-.411v-.9h.247v.909c0 .118.029.205.087.261.06.056.152.084.276.084a.65.65 0 00.45-.18v-1.074h.246V12h-.222l-.015-.162a.866.866 0 01-.552.192zm1.21.618v-2.07h.21l.018.15a.62.62 0 01.216-.135.793.793 0 01.279-.045c.2 0 .357.056.47.168.115.11.172.294.172.552 0 .256-.057.447-.171.573-.114.126-.272.189-.474.189a.812.812 0 01-.474-.135v.753h-.246zm.654-.816c.16 0 .277-.045.35-.135.077-.092.115-.235.115-.429 0-.186-.035-.319-.105-.399-.07-.082-.188-.123-.354-.123a.608.608 0 00-.228.042.512.512 0 00-.186.129v.774a.577.577 0 00.408.141zm1.071.816v-2.07h.21l.018.15a.62.62 0 01.216-.135.793.793 0 01.28-.045c.2 0 .356.056.47.168.114.11.171.294.171.552 0 .256-.057.447-.17.573-.115.126-.273.189-.475.189a.812.812 0 01-.474-.135v.753h-.246zm.654-.816c.16 0 .277-.045.351-.135.076-.092.114-.235.114-.429 0-.186-.035-.319-.105-.399-.07-.082-.188-.123-.354-.123a.608.608 0 00-.228.042.512.512 0 00-.186.129v.774a.577.577 0 00.408.141zm1.723.198c-.248 0-.429-.063-.543-.189-.112-.128-.168-.312-.168-.552 0-.238.057-.421.171-.549.114-.128.294-.192.54-.192.246 0 .426.064.54.192.114.128.171.311.171.549 0 .24-.056.424-.168.552-.112.126-.293.189-.543.189zm0-.21c.17 0 .29-.042.36-.126.07-.086.105-.221.105-.405 0-.184-.036-.318-.108-.402-.07-.086-.189-.129-.357-.129-.168 0-.288.043-.36.129-.07.084-.105.218-.105.402 0 .184.035.319.105.405.07.084.19.126.36.126zm1.072.18v-1.422h.222l.018.18a1.603 1.603 0 01.528-.21v.192a1.729 1.729 0 00-.183.051c-.066.02-.13.043-.19.069a.858.858 0 00-.15.081V12h-.245zm1.556.03c-.14 0-.246-.037-.318-.111a.447.447 0 01-.105-.315v-.831h-.216v-.195h.216v-.351l.246-.075v.426h.393l-.015.195h-.378v.819c0 .086.019.148.057.186.04.036.108.054.204.054a.56.56 0 00.17-.03v.186a.718.718 0 01-.254.042z" fill="#fff"/><path d="M2.08 16.29a.705.705 0 01.427-.635.78.78 0 01.316-.06c.138 0 .258.028.36.085.101.057.175.13.222.22l-.232.162a.292.292 0 00-.158-.155.52.52 0 00-.2-.042.414.414 0 00-.402.28.461.461 0 00.092.465.404.404 0 00.138.098.439.439 0 00.177.035.492.492 0 00.135-.02.393.393 0 00.132-.066c.04-.03.071-.069.093-.117l.25.148a.436.436 0 01-.15.177.833.833 0 01-.47.148.718.718 0 01-.678-.458.702.702 0 01-.052-.265zm2.2.72c-.11 0-.21-.02-.3-.058a.74.74 0 01-.233-.16.74.74 0 01-.15-.23.683.683 0 01.158-.752.736.736 0 01.53-.215c.11 0 .21.02.3.063.09.04.167.094.23.162a.711.711 0 01.202.488c0 .091-.018.18-.055.265a.735.735 0 01-.682.437zm-.43-.708a.466.466 0 00.115.306.407.407 0 00.135.1.463.463 0 00.182.035c.069 0 .13-.013.183-.038a.41.41 0 00.132-.102.454.454 0 00.083-.143.453.453 0 000-.323.432.432 0 00-.22-.235.419.419 0 00-.18-.037.407.407 0 00-.317.138.457.457 0 00-.113.3zM6.533 17v-.872l-.4.64h-.165l-.397-.64V17h-.303v-1.398h.328l.457.756.458-.756h.322V17h-.3zm.642 0v-1.398h.657c.095 0 .18.024.255.07a.51.51 0 01.175.178c.044.07.065.144.065.223a.48.48 0 01-.23.402.465.465 0 01-.252.067h-.368V17h-.302zm.302-.723h.348a.22.22 0 00.1-.022.177.177 0 00.07-.07.239.239 0 00.025-.112.199.199 0 00-.03-.113.19.19 0 00-.078-.068.202.202 0 00-.1-.024h-.335v.41zM8.28 17l.61-1.398h.248L9.744 17h-.32l-.14-.328h-.542l-.14.328h-.323zm.735-1.03l-.205.44h.403l-.198-.44zm1.928-.103h-.492V17h-.303v-1.133h-.495v-.265h1.29v.265zM11.154 17v-1.398h.303V17h-.303zm1.877-.358a.296.296 0 01-.067.198.41.41 0 01-.18.12.733.733 0 01-.248.04h-.74v-1.398h.823c.072 0 .133.018.185.053a.372.372 0 01.162.308c0 .065-.019.127-.057.187a.324.324 0 01-.16.133.383.383 0 01.205.127c.052.06.077.137.077.232zm-.305-.062a.146.146 0 00-.025-.082.167.167 0 00-.062-.06.154.154 0 00-.087-.025h-.453v.332h.438a.221.221 0 00.095-.02.182.182 0 00.067-.06.14.14 0 00.027-.085zm-.627-.717v.312h.393c.031 0 .06-.006.087-.018a.147.147 0 00.087-.14.142.142 0 00-.022-.082.126.126 0 00-.058-.053.173.173 0 00-.082-.02h-.405zM13.286 17v-1.398h.302V17h-.302zm.642 0v-1.398h.302v1.133h.715V17h-1.017zm1.216 0v-1.398h.302V17h-.302zm1.804-1.133h-.492V17h-.303v-1.133h-.495v-.265h1.29v.265zm.38-.265l.382.653.385-.652h.33l-.565.914V17h-.3v-.485l-.56-.913h.328zM19.123 17v-1.398h.658c.095 0 .18.024.255.07a.509.509 0 01.175.178c.043.07.065.144.065.223 0 .08-.021.155-.063.227a.465.465 0 01-.42.242h-.367V17h-.303zm.303-.723h.347a.22.22 0 00.1-.022.177.177 0 00.07-.07.238.238 0 00.025-.112.199.199 0 00-.03-.113.189.189 0 00-.077-.068.202.202 0 00-.1-.024h-.335v.41zm1.077.723v-1.398h.687c.097 0 .182.024.255.07a.509.509 0 01.175.178.437.437 0 01.063.223.433.433 0 01-.277.405l.364.522h-.345l-.325-.457h-.295V17h-.302zm.302-.723h.378c.036 0 .07-.008.1-.024a.189.189 0 00.07-.076.222.222 0 00-.006-.212.19.19 0 00-.075-.07.201.201 0 00-.102-.027h-.365v.41zm1.815.733c-.11 0-.21-.02-.3-.058a.74.74 0 01-.233-.16.74.74 0 01-.15-.23.683.683 0 01.158-.752.736.736 0 01.53-.215c.11 0 .21.02.3.063.09.04.166.094.23.162a.711.711 0 01.202.488c0 .091-.018.18-.055.265a.736.736 0 01-.682.437zm-.43-.708a.466.466 0 00.115.306.408.408 0 00.135.1.463.463 0 00.182.035c.069 0 .13-.013.183-.038a.41.41 0 00.132-.102.453.453 0 00.083-.143.453.453 0 000-.323.432.432 0 00-.22-.235.419.419 0 00-.18-.037.408.408 0 00-.318.138.456.456 0 00-.112.3zm2.035.708a.68.68 0 01-.502-.218.773.773 0 01-.15-.227.692.692 0 01.152-.765.732.732 0 01.52-.208c.14 0 .26.029.36.085a.55.55 0 01.226.22l-.23.17a.34.34 0 00-.15-.152.456.456 0 00-.386-.017.41.41 0 00-.212.235.48.48 0 00.002.342.44.44 0 00.09.14c.039.04.084.07.136.093a.453.453 0 00.38-.02.695.695 0 00.192-.15v.297a.59.59 0 01-.427.175zm.405-.515h-.31v-.22h.56V17h-.25v-.505zm.528.505v-1.398h.688c.096 0 .181.024.255.07a.51.51 0 01.175.178.438.438 0 01.062.223.436.436 0 01-.277.405l.365.522h-.345l-.325-.457h-.295V17h-.303zm.303-.723h.377c.037 0 .07-.008.1-.024a.19.19 0 00.07-.076.223.223 0 00-.005-.212.19.19 0 00-.075-.07.202.202 0 00-.102-.027h-.365v.41zm2.26.458V17h-1.078v-1.398H27.7v.265h-.755v.298h.653v.248h-.653v.322h.775zm1.16-.74a.728.728 0 00-.402-.135.36.36 0 00-.178.035.105.105 0 00-.058.098c0 .033.013.06.038.08.026.02.065.037.114.052.052.015.115.032.188.05.098.025.183.053.255.085.073.032.13.073.168.125.04.052.06.12.06.207a.412.412 0 01-.046.2.359.359 0 01-.125.13.544.544 0 01-.18.073.953.953 0 01-.21.022 1.23 1.23 0 01-.634-.177l.135-.262c.023.021.059.045.107.072a.867.867 0 00.398.095c.075 0 .131-.01.17-.033.04-.021.06-.051.06-.09a.1.1 0 00-.05-.087.474.474 0 00-.133-.058 5.768 5.768 0 00-.203-.055 1.246 1.246 0 01-.237-.085.377.377 0 01-.14-.122.349.349 0 01-.045-.183c0-.096.024-.177.073-.242a.463.463 0 01.2-.147.882.882 0 01.572-.002c.09.029.168.065.233.107l-.13.247zm1.325 0a.728.728 0 00-.402-.135.36.36 0 00-.178.035.105.105 0 00-.057.098c0 .033.012.06.037.08.027.02.065.037.115.052.052.015.114.032.188.05.098.025.183.053.255.085.073.032.129.073.167.125.04.052.06.12.06.207a.412.412 0 01-.045.2.359.359 0 01-.125.13.544.544 0 01-.18.073.953.953 0 01-.21.022 1.23 1.23 0 01-.635-.177l.135-.262c.024.021.06.045.108.072a.867.867 0 00.398.095c.074 0 .13-.01.17-.033.04-.021.06-.051.06-.09a.1.1 0 00-.05-.087.474.474 0 00-.133-.058 5.768 5.768 0 00-.203-.055 1.246 1.246 0 01-.237-.085.377.377 0 01-.14-.122.349.349 0 01-.045-.183c0-.096.024-.177.072-.242a.463.463 0 01.2-.147.882.882 0 01.573-.002c.09.029.167.065.232.107l-.13.247z" fill="#fff" fill-opacity=".8"/><rect x="3" y="3" width="6" height="6" rx="1.5" fill="#AAA7B6"/><path d="M5.439 7.028v-.132c0-.16.034-.298.102-.414.068-.116.152-.22.252-.312.104-.092.208-.18.312-.264.128-.104.236-.206.324-.306a.566.566 0 00.132-.378c0-.212-.062-.362-.186-.45-.124-.092-.342-.138-.654-.138-.168 0-.336.022-.504.066-.168.04-.316.09-.444.15v-.552c.136-.068.3-.122.492-.162.196-.04.404-.06.624-.06.44 0 .772.098.996.294.224.192.336.46.336.804 0 .224-.054.406-.162.546a2.594 2.594 0 01-.42.42 125.3 125.3 0 00-.288.246.95.95 0 00-.192.234.63.63 0 00-.066.306v.102h-.654zM5.415 8v-.492h.696V8h-.696z" fill="#fff"/><path d="M31.22 17v-.822l-.155.027v-.136l.317-.05V17h-.162zm.748.027a.457.457 0 01-.246-.059.348.348 0 01-.137-.17.768.768 0 01-.041-.269c0-.108.013-.2.04-.276a.34.34 0 01.135-.174.454.454 0 01.249-.06c.104 0 .186.02.247.06.063.04.107.098.134.174a.801.801 0 01.042.276.768.768 0 01-.042.268.34.34 0 01-.135.171.457.457 0 01-.246.059zm0-.14c.096 0 .163-.031.201-.094a.517.517 0 00.057-.264.555.555 0 00-.056-.274c-.037-.064-.104-.096-.202-.096-.098 0-.166.032-.204.096a.555.555 0 00-.055.274c0 .112.018.2.056.264.038.063.106.095.203.095zm.977.14a.457.457 0 01-.246-.059.348.348 0 01-.136-.17.768.768 0 01-.042-.269c0-.108.013-.2.04-.276a.34.34 0 01.135-.174.454.454 0 01.25-.06c.103 0 .186.02.247.06.062.04.106.098.133.174a.801.801 0 01.042.276.768.768 0 01-.042.268.34.34 0 01-.135.171.457.457 0 01-.246.059zm0-.14c.096 0 .163-.031.201-.094a.517.517 0 00.057-.264.555.555 0 00-.055-.274c-.037-.064-.105-.096-.203-.096-.098 0-.166.032-.204.096a.555.555 0 00-.055.274c0 .112.019.2.057.264.038.063.105.095.202.095zm.766-.427c-.071 0-.125-.02-.16-.059a.222.222 0 01-.053-.151.25.25 0 01.052-.168c.036-.042.09-.063.16-.063.072 0 .125.021.16.063a.25.25 0 01.052.168.222.222 0 01-.052.151c-.035.04-.088.059-.16.059zm-.066.54l.511-.966h.153l-.511.966h-.153zm.066-.639c.039 0 .067-.01.084-.03a.126.126 0 00.025-.084c0-.044-.009-.076-.027-.096-.017-.021-.044-.032-.082-.032-.038 0-.066.011-.084.032-.017.02-.026.052-.026.096 0 .036.009.064.026.084.017.02.045.03.084.03zm.537.654c-.071 0-.125-.02-.16-.059a.222.222 0 01-.053-.151.25.25 0 01.052-.168c.036-.042.09-.063.16-.063.072 0 .125.021.16.063a.25.25 0 01.052.168.222.222 0 01-.052.151c-.035.04-.088.059-.16.059zm0-.099c.039 0 .067-.01.084-.03a.126.126 0 00.025-.084c0-.044-.009-.076-.027-.096-.017-.021-.044-.032-.082-.032-.038 0-.066.011-.084.032-.017.02-.026.052-.026.096 0 .036.009.064.026.084.017.02.045.03.084.03z" fill="#fff" fill-opacity=".8"/><mask id="prefix__a" style="mask-type:alpha" maskUnits="userSpaceOnUse" x="2" y="18" width="60" height="2"><rect x="2" y="18" width="60" height="2" rx="1" fill="#fff"/></mask><g mask="url(#prefix__a)" fill-opacity=".8"><path fill="url(#prefix__paint1_linear_242_45)" d="M2 18h60v2H2z"/><path fill="url(#prefix__paint2_linear_242_45)" d="M2 18h60v2H2z"/></g><defs><linearGradient id="prefix__paint0_linear_242_45" x1="36" y1="8.067" x2="38.481" y2="22.351" gradientUnits="userSpaceOnUse"><stop stop-color="#302F34"/><stop offset="1" stop-color="#4A354E"/></linearGradient><linearGradient id="prefix__paint1_linear_242_45" x1="2" y1="19" x2="62" y2="19" gradientUnits="userSpaceOnUse"><stop stop-color="#A3A3A3"/><stop offset="1" stop-color="#8C8C8C"/></linearGradient><linearGradient id="prefix__paint2_linear_242_45" x1="2" y1="19" x2="62" y2="19" gradientUnits="userSpaceOnUse"><stop stop-color="#6BE69C"/><stop offset="1" stop-color="#38B369"/></linearGradient></defs></svg>