<svg width="64" height="22" fill="none" xmlns="http://www.w3.org/2000/svg"><rect width="64" height="22" rx="2" fill="url(#prefix__paint0_linear_244_56)"/><path d="M11.315 8V4.78h.56l1.02 2.085L13.91 4.78h.56V8h-.54V5.665l-.87 1.78h-.33l-.875-1.78V8h-.54zm4.524.05c-.15 0-.29-.027-.42-.08a.702.702 0 01-.305-.24.69.69 0 01-.115-.405c0-.227.077-.408.23-.545.157-.14.397-.21.72-.21h.76v-.105a.563.563 0 00-.055-.27c-.033-.067-.096-.115-.19-.145a1.343 1.343 0 00-.4-.045c-.28 0-.541.042-.785.125v-.405c.107-.043.237-.078.39-.105a2.89 2.89 0 01.495-.04c.347 0 .61.07.79.21.183.14.275.368.275.685V8h-.465l-.035-.24a.97.97 0 01-.36.215c-.14.05-.317.075-.53.075zm.145-.39c.164 0 .305-.027.425-.08a.828.828 0 00.3-.225V6.94h-.75c-.16 0-.277.032-.35.095-.07.06-.105.153-.105.28 0 .123.042.212.125.265.084.053.202.08.355.08zM19 8.05c-.417 0-.732-.105-.945-.315-.214-.213-.32-.52-.32-.92 0-.417.116-.727.35-.93.236-.203.551-.305.945-.305.163 0 .3.012.41.035.113.023.221.06.325.11v.405a1.397 1.397 0 00-.63-.13c-.274 0-.484.062-.63.185-.147.12-.22.33-.22.63 0 .283.065.492.195.625.13.13.345.195.645.195.236 0 .451-.045.645-.135v.415c-.11.043-.229.077-.355.1a2.244 2.244 0 01-.415.035zm3.78 0c-.51 0-.892-.133-1.145-.4-.253-.27-.38-.687-.38-1.25 0-.587.127-1.012.38-1.275.253-.263.635-.395 1.145-.395.513 0 .895.132 1.145.395.253.263.38.688.38 1.275 0 .563-.127.98-.38 1.25-.25.267-.632.4-1.145.4zm0-.46c.337 0 .583-.092.74-.275.16-.187.24-.492.24-.915 0-.447-.08-.758-.24-.935-.157-.18-.403-.27-.74-.27-.333 0-.58.09-.74.27-.157.177-.235.488-.235.935 0 .423.078.728.235.915.16.183.407.275.74.275zm2.934.46c-.417 0-.752-.053-1.005-.16v-.48c.143.053.297.097.46.13.166.033.332.05.495.05.256 0 .448-.03.575-.09.13-.06.195-.18.195-.36a.412.412 0 00-.08-.265.608.608 0 00-.265-.17 3.901 3.901 0 00-.51-.155c-.347-.09-.59-.203-.73-.34-.14-.14-.21-.332-.21-.575 0-.283.103-.505.31-.665.206-.16.515-.24.925-.24.186 0 .361.013.525.04.166.027.297.057.39.09v.48a2.34 2.34 0 00-.84-.145c-.24 0-.427.032-.56.095-.134.063-.2.178-.2.345 0 .097.023.175.07.235.047.06.127.112.24.155.116.043.276.092.48.145.263.067.466.147.61.24.146.09.248.197.305.32.06.12.09.257.09.41a.803.803 0 01-.315.67c-.21.16-.528.24-.955.24zm3.926 0c-.417 0-.752-.053-1.005-.16v-.48c.143.053.296.097.46.13.166.033.331.05.495.05.256 0 .448-.03.575-.09.13-.06.195-.18.195-.36a.411.411 0 00-.08-.265.607.607 0 00-.265-.17 3.891 3.891 0 00-.51-.155c-.347-.09-.59-.203-.73-.34-.14-.14-.21-.332-.21-.575 0-.283.103-.505.31-.665.206-.16.515-.24.925-.24.186 0 .361.013.525.04.166.027.296.057.39.09v.48a2.338 2.338 0 00-.84-.145c-.24 0-.427.032-.56.095-.134.063-.2.178-.2.345 0 .097.023.175.07.235.046.06.126.112.24.155.116.043.276.092.48.145.263.067.466.147.61.24.146.09.248.197.305.32.06.12.09.257.09.41a.803.803 0 01-.315.67c-.21.16-.529.24-.955.24zm2.629 0c-.284 0-.502-.078-.655-.235-.15-.157-.225-.387-.225-.69V5.63h.545v1.495c0 .177.043.307.13.39.086.083.22.125.4.125a.907.907 0 00.37-.075.963.963 0 00.295-.2V5.63h.54V8h-.495l-.025-.245a1.48 1.48 0 01-.38.21 1.38 1.38 0 01-.5.085zm2.035 1.03V5.63h.47l.03.235c.107-.097.224-.168.35-.215.127-.047.277-.07.45-.07.34 0 .605.093.795.28.19.183.285.488.285.915 0 .427-.098.747-.295.96-.196.21-.465.315-.805.315a1.31 1.31 0 01-.735-.2v1.23h-.545zm1.14-1.44c.46 0 .69-.29.69-.87 0-.28-.051-.478-.155-.595-.103-.12-.276-.18-.52-.18a.82.82 0 00-.61.25V7.43c.077.063.162.115.255.155.097.037.21.055.34.055zm1.77 1.44V5.63h.47l.03.235a1.07 1.07 0 01.35-.215c.127-.047.277-.07.45-.07.34 0 .605.093.795.28.19.183.285.488.285.915 0 .427-.098.747-.295.96-.196.21-.465.315-.805.315a1.31 1.31 0 01-.735-.2v1.23h-.545zm1.14-1.44c.46 0 .69-.29.69-.87 0-.28-.051-.478-.155-.595-.103-.12-.276-.18-.52-.18a.82.82 0 00-.61.25V7.43c.077.063.162.115.255.155.097.037.21.055.34.055zm2.906.41c-.427 0-.74-.107-.94-.32-.197-.213-.295-.518-.295-.915s.1-.702.3-.915c.2-.213.511-.32.935-.32.426 0 .74.107.94.32.2.213.3.518.3.915s-.1.702-.3.915c-.197.213-.51.32-.94.32zm0-.46c.25 0 .426-.06.53-.18.106-.123.16-.322.16-.595 0-.273-.054-.47-.16-.59-.104-.12-.28-.18-.53-.18-.247 0-.424.06-.53.18-.104.12-.155.317-.155.59 0 .273.051.472.155.595.106.12.283.18.53.18zm1.77.41V5.63h.5l.03.275c.113-.073.248-.14.405-.2a2.24 2.24 0 01.465-.125v.415a2.688 2.688 0 00-.305.075c-.107.03-.209.065-.305.105a1.54 1.54 0 00-.245.115V8h-.545zm2.702.05c-.254 0-.444-.067-.57-.2-.124-.137-.185-.322-.185-.555v-1.24h-.35V5.63h.35v-.545l.54-.165v.71h.63l-.035.425h-.595v1.21c0 .137.031.233.095.29.063.053.166.08.31.08.09 0 .185-.017.285-.05v.385c-.13.053-.289.08-.475.08zM12.008 12.03c-.264 0-.466-.063-.606-.189-.138-.126-.207-.309-.207-.549v-1.224h.246v1.227c0 .176.049.308.147.396.1.086.24.129.42.129.178 0 .316-.043.414-.129.1-.088.15-.22.15-.396v-1.227h.246v1.224c0 .24-.07.423-.21.549-.138.126-.338.189-.6.189zm1.215-.03v-1.422h.222l.015.162a.889.889 0 01.237-.138.86.86 0 01.315-.054c.18 0 .31.042.393.126.082.084.123.216.123.396V12h-.246v-.921c0-.124-.025-.21-.075-.258-.05-.05-.146-.075-.288-.075a.65.65 0 00-.45.18V12h-.246zm2.108.03a.635.635 0 01-.25-.048.43.43 0 01-.182-.141.4.4 0 01-.07-.24.42.42 0 01.13-.318c.086-.084.226-.126.42-.126h.495v-.087a.436.436 0 00-.033-.186.184.184 0 00-.117-.099.826.826 0 00-.255-.03 1.442 1.442 0 00-.474.078v-.204a1.576 1.576 0 01.507-.081c.202 0 .353.041.453.123.102.082.153.215.153.399V12H15.9l-.018-.162a.588.588 0 01-.225.144.965.965 0 01-.327.048zm.063-.201a.666.666 0 00.276-.054.622.622 0 00.204-.153v-.276h-.49c-.111 0-.191.021-.24.063-.047.042-.071.106-.071.192 0 .086.029.146.087.18a.485.485 0 00.234.048zm1.482.171l-.558-1.422h.255l.441 1.194.441-1.194h.255L17.152 12h-.276zm1.44.03a.635.635 0 01-.249-.048.43.43 0 01-.183-.141.4.4 0 01-.069-.24.42.42 0 01.129-.318c.086-.084.226-.126.42-.126h.495v-.087a.436.436 0 00-.033-.186.184.184 0 00-.117-.099.826.826 0 00-.255-.03 1.442 1.442 0 00-.474.078v-.204a1.576 1.576 0 01.507-.081c.202 0 .353.041.453.123.102.082.153.215.153.399V12h-.207l-.018-.162a.588.588 0 01-.225.144.965.965 0 01-.327.048zm.063-.201a.666.666 0 00.276-.054.622.622 0 00.204-.153v-.276h-.489c-.112 0-.192.021-.24.063-.048.042-.072.106-.072.192 0 .086.029.146.087.18a.485.485 0 00.234.048zm1.254-1.584v-.225h.273v.225h-.273zM19.657 12v-1.227h-.219l.024-.195h.441V12h-.246zm.98.03a.33.33 0 01-.229-.075c-.054-.052-.08-.139-.08-.261V9.978h.245v1.689c0 .06.01.101.03.123.02.022.051.033.093.033a.51.51 0 00.135-.018V12a.422.422 0 01-.096.024.798.798 0 01-.099.006zm.92 0a.635.635 0 01-.25-.048.43.43 0 01-.183-.141.4.4 0 01-.069-.24.42.42 0 01.13-.318c.085-.084.225-.126.42-.126h.494v-.087a.436.436 0 00-.033-.186.184.184 0 00-.117-.099.826.826 0 00-.255-.03 1.442 1.442 0 00-.474.078v-.204a1.576 1.576 0 01.507-.081c.202 0 .353.041.453.123.102.082.153.215.153.399V12h-.207l-.018-.162a.588.588 0 01-.225.144.965.965 0 01-.327.048zm.062-.201a.666.666 0 00.276-.054.622.622 0 00.204-.153v-.276h-.489c-.112 0-.192.021-.24.063-.048.042-.072.106-.072.192 0 .086.03.146.087.18a.485.485 0 00.234.048zm1.842.201a.844.844 0 01-.279-.042.661.661 0 01-.216-.138l-.018.15h-.21V9.978h.246v.705a.812.812 0 01.474-.135c.202 0 .36.058.474.174.114.114.171.299.171.555 0 .258-.057.448-.17.57-.115.122-.272.183-.472.183zm-.063-.198c.166 0 .284-.046.354-.138.07-.092.105-.231.105-.417 0-.194-.038-.331-.114-.411-.074-.08-.19-.12-.35-.12a.643.643 0 00-.232.039.533.533 0 00-.177.102v.774a.512.512 0 00.186.129c.07.028.146.042.228.042zm1.375.198a.33.33 0 01-.228-.075c-.054-.052-.081-.139-.081-.261V9.978h.246v1.689c0 .06.01.101.03.123.02.022.05.033.093.033a.51.51 0 00.135-.018V12a.422.422 0 01-.096.024.798.798 0 01-.1.006zm1.178 0c-.254 0-.444-.061-.57-.183-.126-.122-.189-.31-.189-.564 0-.228.054-.407.162-.537.11-.132.283-.198.519-.198.14 0 .255.026.345.078.092.05.16.12.204.21a.638.638 0 01.069.3v.267h-1.053a.57.57 0 00.069.255c.04.062.099.107.177.135.08.026.185.039.315.039.146 0 .28-.025.402-.075v.192a1 1 0 01-.21.06 1.323 1.323 0 01-.24.021zm-.513-.804h.834v-.117c0-.116-.031-.205-.093-.267-.06-.064-.16-.096-.3-.096-.17 0-.286.04-.348.12-.062.08-.093.2-.093.36z" fill="#fff"/><path d="M2.08 16.29a.705.705 0 01.427-.635.78.78 0 01.316-.06c.138 0 .258.028.36.085.101.057.175.13.222.22l-.232.162a.292.292 0 00-.158-.155.52.52 0 00-.2-.042.414.414 0 00-.402.28.461.461 0 00.092.465.404.404 0 00.138.098.439.439 0 00.177.035.492.492 0 00.135-.02.393.393 0 00.132-.066c.04-.03.071-.069.093-.117l.25.148a.436.436 0 01-.15.177.833.833 0 01-.47.148.718.718 0 01-.678-.458.702.702 0 01-.052-.265zm2.2.72c-.11 0-.21-.02-.3-.058a.74.74 0 01-.233-.16.74.74 0 01-.15-.23.683.683 0 01.158-.752.736.736 0 01.53-.215c.11 0 .21.02.3.063.09.04.167.094.23.162a.711.711 0 01.202.488c0 .091-.018.18-.055.265a.735.735 0 01-.682.437zm-.43-.708a.466.466 0 00.115.306.407.407 0 00.135.1.463.463 0 00.182.035c.069 0 .13-.013.183-.038a.41.41 0 00.132-.102.454.454 0 00.083-.143.453.453 0 000-.323.432.432 0 00-.22-.235.419.419 0 00-.18-.037.407.407 0 00-.317.138.457.457 0 00-.113.3zM6.533 17v-.872l-.4.64h-.165l-.397-.64V17h-.303v-1.398h.328l.457.756.458-.756h.322V17h-.3zm.642 0v-1.398h.657c.095 0 .18.024.255.07a.51.51 0 01.175.178c.044.07.065.144.065.223a.48.48 0 01-.23.402.465.465 0 01-.252.067h-.368V17h-.302zm.302-.723h.348a.22.22 0 00.1-.022.177.177 0 00.07-.07.239.239 0 00.025-.112.199.199 0 00-.03-.113.19.19 0 00-.078-.068.202.202 0 00-.1-.024h-.335v.41zM8.28 17l.61-1.398h.248L9.744 17h-.32l-.14-.328h-.542l-.14.328h-.323zm.735-1.03l-.205.44h.403l-.198-.44zm1.928-.103h-.492V17h-.303v-1.133h-.495v-.265h1.29v.265zM11.154 17v-1.398h.303V17h-.303zm1.877-.358a.296.296 0 01-.067.198.41.41 0 01-.18.12.733.733 0 01-.248.04h-.74v-1.398h.823c.072 0 .133.018.185.053a.372.372 0 01.162.308c0 .065-.019.127-.057.187a.324.324 0 01-.16.133.383.383 0 01.205.127c.052.06.077.137.077.232zm-.305-.062a.146.146 0 00-.025-.082.167.167 0 00-.062-.06.154.154 0 00-.087-.025h-.453v.332h.438a.221.221 0 00.095-.02.182.182 0 00.067-.06.14.14 0 00.027-.085zm-.627-.717v.312h.393c.031 0 .06-.006.087-.018a.147.147 0 00.087-.14.142.142 0 00-.022-.082.126.126 0 00-.058-.053.173.173 0 00-.082-.02h-.405zM13.286 17v-1.398h.302V17h-.302zm.642 0v-1.398h.302v1.133h.715V17h-1.017zm1.216 0v-1.398h.302V17h-.302zm1.804-1.133h-.492V17h-.303v-1.133h-.495v-.265h1.29v.265zm.38-.265l.382.653.385-.652h.33l-.565.914V17h-.3v-.485l-.56-.913h.328zM19.123 17v-1.398h.658c.095 0 .18.024.255.07a.509.509 0 01.175.178c.043.07.065.144.065.223 0 .08-.021.155-.063.227a.465.465 0 01-.42.242h-.367V17h-.303zm.303-.723h.347a.22.22 0 00.1-.022.177.177 0 00.07-.07.238.238 0 00.025-.112.199.199 0 00-.03-.113.189.189 0 00-.077-.068.202.202 0 00-.1-.024h-.335v.41zm1.077.723v-1.398h.687c.097 0 .182.024.255.07a.509.509 0 01.175.178.437.437 0 01.063.223.433.433 0 01-.277.405l.364.522h-.345l-.325-.457h-.295V17h-.302zm.302-.723h.378c.036 0 .07-.008.1-.024a.189.189 0 00.07-.076.222.222 0 00-.006-.212.19.19 0 00-.075-.07.201.201 0 00-.102-.027h-.365v.41zm1.815.733c-.11 0-.21-.02-.3-.058a.74.74 0 01-.233-.16.74.74 0 01-.15-.23.683.683 0 01.158-.752.736.736 0 01.53-.215c.11 0 .21.02.3.063.09.04.166.094.23.162a.711.711 0 01.202.488c0 .091-.018.18-.055.265a.736.736 0 01-.682.437zm-.43-.708a.466.466 0 00.115.306.408.408 0 00.135.1.463.463 0 00.182.035c.069 0 .13-.013.183-.038a.41.41 0 00.132-.102.453.453 0 00.083-.143.453.453 0 000-.323.432.432 0 00-.22-.235.419.419 0 00-.18-.037.408.408 0 00-.318.138.456.456 0 00-.112.3zm2.035.708a.68.68 0 01-.502-.218.773.773 0 01-.15-.227.692.692 0 01.152-.765.732.732 0 01.52-.208c.14 0 .26.029.36.085a.55.55 0 01.226.22l-.23.17a.34.34 0 00-.15-.152.456.456 0 00-.386-.017.41.41 0 00-.212.235.48.48 0 00.002.342.44.44 0 00.09.14c.039.04.084.07.136.093a.453.453 0 00.38-.02.695.695 0 00.192-.15v.297a.59.59 0 01-.427.175zm.405-.515h-.31v-.22h.56V17h-.25v-.505zm.528.505v-1.398h.688c.096 0 .181.024.255.07a.51.51 0 01.175.178.438.438 0 01.062.223.436.436 0 01-.277.405l.365.522h-.345l-.325-.457h-.295V17h-.303zm.303-.723h.377c.037 0 .07-.008.1-.024a.19.19 0 00.07-.076.223.223 0 00-.005-.212.19.19 0 00-.075-.07.202.202 0 00-.102-.027h-.365v.41zm2.26.458V17h-1.078v-1.398H27.7v.265h-.755v.298h.653v.248h-.653v.322h.775zm1.16-.74a.728.728 0 00-.402-.135.36.36 0 00-.178.035.105.105 0 00-.058.098c0 .033.013.06.038.08.026.02.065.037.114.052.052.015.115.032.188.05.098.025.183.053.255.085.073.032.13.073.168.125.04.052.06.12.06.207a.412.412 0 01-.046.2.359.359 0 01-.125.13.544.544 0 01-.18.073.953.953 0 01-.21.022 1.23 1.23 0 01-.634-.177l.135-.262c.023.021.059.045.107.072a.867.867 0 00.398.095c.075 0 .131-.01.17-.033.04-.021.06-.051.06-.09a.1.1 0 00-.05-.087.474.474 0 00-.133-.058 5.768 5.768 0 00-.203-.055 1.246 1.246 0 01-.237-.085.377.377 0 01-.14-.122.349.349 0 01-.045-.183c0-.096.024-.177.073-.242a.463.463 0 01.2-.147.882.882 0 01.572-.002c.09.029.168.065.233.107l-.13.247zm1.325 0a.728.728 0 00-.402-.135.36.36 0 00-.178.035.105.105 0 00-.057.098c0 .033.012.06.037.08.027.02.065.037.115.052.052.015.114.032.188.05.098.025.183.053.255.085.073.032.129.073.167.125.04.052.06.12.06.207a.412.412 0 01-.045.2.359.359 0 01-.125.13.544.544 0 01-.18.073.953.953 0 01-.21.022 1.23 1.23 0 01-.635-.177l.135-.262c.024.021.06.045.108.072a.867.867 0 00.398.095c.074 0 .13-.01.17-.033.04-.021.06-.051.06-.09a.1.1 0 00-.05-.087.474.474 0 00-.133-.058 5.768 5.768 0 00-.203-.055 1.246 1.246 0 01-.237-.085.377.377 0 01-.14-.122.349.349 0 01-.045-.183c0-.096.024-.177.072-.242a.463.463 0 01.2-.147.882.882 0 01.573-.002c.09.029.167.065.232.107l-.13.247zM31.489 17.027a.457.457 0 01-.246-.059.348.348 0 01-.136-.17.768.768 0 01-.043-.269c0-.108.014-.2.041-.276a.34.34 0 01.135-.174.454.454 0 01.249-.06c.104 0 .186.02.247.06.063.04.107.098.134.174a.801.801 0 01.042.276.768.768 0 01-.042.268.34.34 0 01-.135.171.457.457 0 01-.246.059zm0-.14c.096 0 .163-.031.201-.094a.517.517 0 00.057-.264.555.555 0 00-.055-.274c-.038-.064-.105-.096-.203-.096-.098 0-.166.032-.204.096a.555.555 0 00-.055.274c0 .112.018.2.056.264.038.063.106.095.203.095zm.766-.427c-.071 0-.125-.02-.16-.059a.222.222 0 01-.053-.151.25.25 0 01.052-.168c.036-.042.09-.063.16-.063.072 0 .125.021.16.063a.25.25 0 01.052.168.222.222 0 01-.052.151c-.035.04-.088.059-.16.059zm-.066.54l.511-.966h.153l-.511.966h-.153zm.066-.639c.039 0 .067-.01.084-.03a.126.126 0 00.025-.084c0-.044-.009-.076-.027-.096-.017-.021-.044-.032-.082-.032-.038 0-.066.011-.084.032-.017.02-.026.052-.026.096 0 .036.009.064.026.084.017.02.045.03.084.03zm.537.654c-.071 0-.125-.02-.16-.059a.222.222 0 01-.053-.151.25.25 0 01.052-.168c.036-.042.09-.063.16-.063.072 0 .125.021.16.063a.25.25 0 01.052.168.222.222 0 01-.052.151c-.035.04-.088.059-.16.059zm0-.099c.039 0 .067-.01.084-.03a.126.126 0 00.025-.084c0-.044-.009-.076-.027-.096-.017-.021-.044-.032-.082-.032-.038 0-.066.011-.084.032-.017.02-.026.052-.026.096 0 .036.009.064.026.084.017.02.045.03.084.03z" fill="#fff" fill-opacity=".8"/><path d="M6.302 4.99v-.049l-.153.01a.19.19 0 00-.099.028.076.076 0 00-.033.066c0 .027.011.049.033.065.022.016.051.024.087.024a.195.195 0 00.066-.01.162.162 0 00.052-.03.134.134 0 00.047-.103zM6 3C4.326 3 3 4.326 3 6s1.326 3 3 3 3-1.326 3-3-1.326-3-3-3zm.582 1.778a.298.298 0 01.06-.102.263.263 0 01.094-.066.311.311 0 01.121-.023c.04 0 .077.007.11.019.032.012.06.028.083.048a.232.232 0 01.08.158h-.12a.155.155 0 00-.017-.047.127.127 0 00-.03-.037.145.145 0 00-.046-.025.176.176 0 00-.128.006.154.154 0 00-.053.044.207.207 0 00-.034.069.308.308 0 00-.013.09c0 .034.004.065.013.091.008.027.02.05.034.069a.15.15 0 00.054.043c.021.01.044.014.07.014.04 0 .074-.01.1-.029a.136.136 0 00.05-.085h.121a.24.24 0 01-.084.16.255.255 0 01-.083.045.336.336 0 01-.105.015.321.321 0 01-.122-.022.263.263 0 01-.154-.166.403.403 0 01-.022-.135.39.39 0 01.021-.134zM4.87 4.596h.12v.107h.003a.178.178 0 01.12-.106.218.218 0 01.06-.008c.044 0 .081.01.112.031a.17.17 0 01.065.092h.003a.19.19 0 01.077-.09.24.24 0 01.205-.018.183.183 0 01.107.108c.01.025.015.054.015.085v.431H5.63v-.4a.135.135 0 00-.032-.097c-.021-.023-.052-.034-.092-.034a.137.137 0 00-.053.01.122.122 0 00-.069.073.153.153 0 00-.01.056v.392H5.25v-.41a.138.138 0 00-.008-.05.105.105 0 00-.062-.062.143.143 0 00-.105.002.127.127 0 00-.07.075c-.007.018-.017.037-.017.057v.388h-.12v-.632zm.273 3.027c-.553 0-.9-.384-.9-.998 0-.613.347-.998.9-.998s.899.385.899.998c0 .614-.346.998-.899.998zm1.024-2.396a.265.265 0 01-.15-.006.2.2 0 01-.066-.038.17.17 0 01-.044-.059.184.184 0 01-.016-.077c0-.056.02-.1.062-.13a.331.331 0 01.18-.055l.17-.01v-.049c0-.036-.011-.064-.034-.083a.151.151 0 00-.099-.028.175.175 0 00-.047.006.132.132 0 00-.04.018.105.105 0 00-.043.066h-.118c0-.028.008-.054.02-.077a.2.2 0 01.054-.062.25.25 0 01.079-.04.347.347 0 01.204 0c.03.009.057.023.08.04a.185.185 0 01.069.151v.434h-.12v-.105h-.004a.19.19 0 01-.034.046.218.218 0 01-.103.058zm.796 2.396c-.422 0-.709-.22-.729-.568h.275c.021.198.213.33.475.33.252 0 .433-.132.433-.31 0-.156-.11-.25-.364-.314l-.248-.062c-.356-.088-.518-.25-.518-.517 0-.328.286-.555.695-.555.399 0 .677.229.688.558h-.272c-.019-.198-.18-.32-.422-.32-.24 0-.405.123-.405.301 0 .14.104.224.358.288l.21.052c.397.097.56.253.56.535 0 .358-.283.582-.736.582zm-1.82-1.75c-.379 0-.616.29-.616.752 0 .46.237.752.616.752.378 0 .616-.291.616-.752 0-.462-.238-.752-.616-.752z" fill="#fff"/><mask id="prefix__a" style="mask-type:alpha" maskUnits="userSpaceOnUse" x="2" y="18" width="60" height="2"><rect x="2" y="18" width="60" height="2" rx="1" fill="#fff"/></mask><g mask="url(#prefix__a)" fill-opacity=".8"><path fill="url(#prefix__paint1_linear_244_56)" d="M2 18h60v2H2z"/><path d="M2 18h1a1 1 0 110 2H2v-2z" fill="url(#prefix__paint2_linear_244_56)"/></g><defs><linearGradient id="prefix__paint0_linear_244_56" x1="36" y1="8.067" x2="38.481" y2="22.351" gradientUnits="userSpaceOnUse"><stop stop-color="#302F34"/><stop offset="1" stop-color="#4A354E"/></linearGradient><linearGradient id="prefix__paint1_linear_244_56" x1="2" y1="19" x2="62" y2="19" gradientUnits="userSpaceOnUse"><stop stop-color="#A3A3A3"/><stop offset="1" stop-color="#8C8C8C"/></linearGradient><linearGradient id="prefix__paint2_linear_244_56" x1="2" y1="19" x2="4" y2="19" gradientUnits="userSpaceOnUse"><stop stop-color="#6BE69C"/><stop offset="1" stop-color="#38B369"/></linearGradient></defs></svg>