<svg width="64" height="22" fill="none" xmlns="http://www.w3.org/2000/svg"><rect width="64" height="22" rx="2" fill="url(#prefix__paint0_linear_236_266)"/><path d="M5.833 3H3v2.833h2.833V3zM9 3H6.167v2.833H9V3zM9 6.167H6.167V9H9V6.167zM5.833 9V6.167H3V9h2.833z" fill="#0078D4"/><path d="M11.97 8l-.75-3.22h.535l.545 2.415.61-2.025v-.39h.445l.685 2.415.555-2.415h.53L14.38 8h-.535L13.2 5.745 12.515 8h-.545zm3.666-2.865v-.45h.595v.45h-.595zM15.681 8V6.045h-.36l.05-.415h.855V8h-.545zm1.18 0V5.63h.5l.026.25c.107-.083.233-.153.38-.21.15-.06.315-.09.495-.09.306 0 .53.072.67.215.14.143.21.367.21.67V8h-.54V6.49c0-.183-.038-.312-.115-.385-.073-.073-.213-.11-.42-.11a.941.941 0 00-.66.27V8h-.545zm3.823.05c-.214 0-.402-.037-.565-.11a.79.79 0 01-.38-.365c-.09-.17-.135-.398-.135-.685 0-.283.048-.522.145-.715.096-.197.23-.345.4-.445.173-.1.368-.15.585-.15.143 0 .27.017.38.05.113.033.221.085.325.155V4.63h.545V8h-.465l-.035-.235a1.07 1.07 0 01-.35.215c-.127.047-.277.07-.45.07zm.145-.41a.82.82 0 00.61-.25V6.205a.853.853 0 00-.59-.21c-.23 0-.404.077-.52.23-.117.153-.175.377-.175.67 0 .283.053.478.16.585.11.107.281.16.515.16zm2.871.41c-.427 0-.74-.107-.94-.32-.197-.213-.295-.518-.295-.915s.1-.702.3-.915c.2-.213.512-.32.935-.32.427 0 .74.107.94.32.2.213.3.518.3.915s-.1.702-.3.915c-.197.213-.51.32-.94.32zm0-.46c.25 0 .427-.06.53-.18.107-.123.16-.322.16-.595 0-.273-.053-.47-.16-.59-.103-.12-.28-.18-.53-.18-.247 0-.423.06-.53.18-.103.12-.155.317-.155.59 0 .273.052.472.155.595.107.12.283.18.53.18zm2.07.41l-.624-2.37h.545l.41 1.725.465-1.435v-.29h.415l.515 1.725.41-1.725h.54L27.826 8h-.515l-.505-1.55L26.29 8h-.52zm3.771.05c-.163 0-.32-.012-.47-.035a2.208 2.208 0 01-.365-.085v-.46a2.321 2.321 0 00.765.135c.187 0 .32-.017.4-.05.08-.033.12-.098.12-.195a.2.2 0 00-.075-.165.67.67 0 00-.215-.11 11.212 11.212 0 00-.36-.12 2.58 2.58 0 01-.364-.15.657.657 0 01-.24-.215.612.612 0 01-.085-.34c0-.217.078-.383.235-.5.156-.12.408-.18.755-.18.136 0 .266.01.39.03.123.02.228.045.314.075v.455a1.612 1.612 0 00-.31-.085 1.737 1.737 0 00-.705.015c-.086.03-.13.09-.13.18 0 .093.046.16.136.2.093.037.241.088.445.155.186.057.334.117.445.18.11.063.188.14.235.23.05.087.075.2.075.34 0 .233-.085.408-.255.525-.17.113-.417.17-.74.17zm3.657 0c-.416 0-.752-.053-1.005-.16v-.48c.144.053.297.097.46.13.167.033.332.05.495.05.257 0 .448-.03.575-.09.13-.06.195-.18.195-.36a.412.412 0 00-.08-.265.607.607 0 00-.265-.17 3.891 3.891 0 00-.51-.155c-.346-.09-.59-.203-.73-.34-.14-.14-.21-.332-.21-.575 0-.283.104-.505.31-.665.207-.16.515-.24.925-.24.187 0 .362.013.525.04.167.027.297.057.39.09v.48a2.338 2.338 0 00-.84-.145c-.24 0-.426.032-.56.095-.133.063-.2.178-.2.345 0 .097.023.175.07.235.047.06.127.112.24.155.117.043.277.092.48.145.264.067.467.147.61.24.147.09.248.197.305.32.06.12.09.257.09.41a.803.803 0 01-.315.67c-.21.16-.528.24-.955.24zm2.63 0c-.284 0-.502-.078-.656-.235-.15-.157-.225-.387-.225-.69V5.63h.545v1.495c0 .177.044.307.13.39.087.083.22.125.4.125a.906.906 0 00.37-.075.96.96 0 00.295-.2V5.63h.54V8h-.495l-.025-.245a1.476 1.476 0 01-.38.21 1.379 1.379 0 01-.5.085zm2.035 1.03V5.63h.47l.03.235c.106-.097.223-.168.35-.215.127-.047.276-.07.45-.07.34 0 .605.093.795.28.19.183.285.488.285.915 0 .427-.099.747-.295.96-.197.21-.465.315-.805.315a1.31 1.31 0 01-.735-.2v1.23h-.545zm1.14-1.44c.46 0 .69-.29.69-.87 0-.28-.052-.478-.155-.595-.103-.12-.277-.18-.52-.18a.82.82 0 00-.61.25V7.43c.076.063.161.115.255.155.097.037.21.055.34.055zm1.77 1.44V5.63h.47l.03.235a1.07 1.07 0 01.35-.215c.127-.047.277-.07.45-.07.34 0 .605.093.795.28.19.183.285.488.285.915 0 .427-.098.747-.295.96-.197.21-.465.315-.805.315a1.31 1.31 0 01-.735-.2v1.23h-.545zm1.14-1.44c.46 0 .69-.29.69-.87 0-.28-.052-.478-.155-.595-.103-.12-.277-.18-.52-.18a.82.82 0 00-.61.25V7.43c.077.063.162.115.255.155.097.037.21.055.34.055zm2.905.41c-.426 0-.74-.107-.94-.32-.197-.213-.295-.518-.295-.915s.1-.702.3-.915c.2-.213.512-.32.935-.32.427 0 .74.107.94.32.2.213.3.518.3.915s-.1.702-.3.915c-.197.213-.51.32-.94.32zm0-.46c.25 0 .427-.06.53-.18.107-.123.16-.322.16-.595 0-.273-.053-.47-.16-.59-.103-.12-.28-.18-.53-.18-.246 0-.423.06-.53.18-.103.12-.155.317-.155.59 0 .273.052.472.155.595.107.12.284.18.53.18zm1.77.41V5.63h.5l.03.275c.114-.073.249-.14.405-.2.157-.06.312-.102.465-.125v.415a2.694 2.694 0 00-.305.075c-.106.03-.208.065-.305.105a1.548 1.548 0 00-.245.115V8h-.545zm2.702.05c-.253 0-.443-.067-.57-.2-.123-.137-.185-.322-.185-.555v-1.24h-.35V5.63h.35v-.545l.54-.165v.71h.63l-.035.425h-.595v1.21c0 .137.032.233.095.29.064.053.167.08.31.08.09 0 .185-.017.285-.05v.385c-.13.053-.288.08-.475.08zM11.21 12v-1.932h1.266v.195h-1.02v.675h.909v.192h-.909V12h-.246zm1.992.03c-.17 0-.299-.047-.387-.141-.086-.094-.129-.231-.129-.411v-.9h.246v.909c0 .118.03.205.087.261.06.056.152.084.276.084a.65.65 0 00.45-.18v-1.074h.246V12h-.222l-.015-.162a.866.866 0 01-.552.192zm1.52 0a.33.33 0 01-.229-.075c-.054-.052-.08-.139-.08-.261V9.978h.245v1.689c0 .06.01.101.03.123.02.022.051.033.093.033a.51.51 0 00.135-.018V12a.422.422 0 01-.096.024.798.798 0 01-.099.006zm.711 0a.33.33 0 01-.228-.075c-.054-.052-.08-.139-.08-.261V9.978h.245v1.689c0 .06.01.101.03.123.02.022.051.033.093.033a.51.51 0 00.135-.018V12a.422.422 0 01-.096.024.798.798 0 01-.099.006zm1.738 0c-.24 0-.434-.03-.582-.09v-.219c.084.032.173.057.267.075.096.016.194.024.294.024.172 0 .3-.023.387-.069.086-.048.129-.133.129-.255a.276.276 0 00-.054-.18.366.366 0 00-.171-.114 2.389 2.389 0 00-.321-.096c-.212-.052-.361-.119-.447-.201a.448.448 0 01-.13-.336c0-.164.06-.293.178-.387.118-.096.298-.144.54-.144a1.9 1.9 0 01.534.075v.216a1.334 1.334 0 00-.234-.06 1.586 1.586 0 00-.261-.021.803.803 0 00-.378.072c-.088.048-.132.131-.132.249 0 .066.015.12.045.162.032.04.085.075.159.105.074.028.177.058.309.09a1.3 1.3 0 01.369.138.46.46 0 01.186.186.543.543 0 01.054.246c0 .17-.062.302-.186.396-.124.092-.31.138-.555.138zm1.586 0c-.17 0-.3-.047-.387-.141-.086-.094-.13-.231-.13-.411v-.9h.247v.909c0 .118.029.205.087.261.06.056.152.084.276.084a.65.65 0 00.45-.18v-1.074h.246V12h-.222l-.015-.162a.866.866 0 01-.552.192zm1.21.618v-2.07h.21l.018.15a.62.62 0 01.216-.135.793.793 0 01.279-.045c.2 0 .357.056.47.168.115.11.172.294.172.552 0 .256-.057.447-.171.573-.114.126-.272.189-.474.189a.812.812 0 01-.474-.135v.753h-.246zm.654-.816c.16 0 .277-.045.35-.135.077-.092.115-.235.115-.429 0-.186-.035-.319-.105-.399-.07-.082-.188-.123-.354-.123a.608.608 0 00-.228.042.512.512 0 00-.186.129v.774a.577.577 0 00.408.141zm1.071.816v-2.07h.21l.018.15a.62.62 0 01.216-.135.793.793 0 01.28-.045c.2 0 .356.056.47.168.114.11.171.294.171.552 0 .256-.057.447-.17.573-.115.126-.273.189-.475.189a.812.812 0 01-.474-.135v.753h-.246zm.654-.816c.16 0 .277-.045.351-.135.076-.092.114-.235.114-.429 0-.186-.035-.319-.105-.399-.07-.082-.188-.123-.354-.123a.608.608 0 00-.228.042.512.512 0 00-.186.129v.774a.577.577 0 00.408.141zm1.723.198c-.248 0-.429-.063-.543-.189-.112-.128-.168-.312-.168-.552 0-.238.057-.421.171-.549.114-.128.294-.192.54-.192.246 0 .426.064.54.192.114.128.171.311.171.549 0 .24-.056.424-.168.552-.112.126-.293.189-.543.189zm0-.21c.17 0 .29-.042.36-.126.07-.086.105-.221.105-.405 0-.184-.036-.318-.108-.402-.07-.086-.189-.129-.357-.129-.168 0-.288.043-.36.129-.07.084-.105.218-.105.402 0 .184.035.319.105.405.07.084.19.126.36.126zm1.072.18v-1.422h.222l.018.18a1.603 1.603 0 01.528-.21v.192a1.729 1.729 0 00-.183.051c-.066.02-.13.043-.19.069a.858.858 0 00-.15.081V12h-.245zm1.556.03c-.14 0-.246-.037-.318-.111a.447.447 0 01-.105-.315v-.831h-.216v-.195h.216v-.351l.246-.075v.426h.393l-.015.195h-.378v.819c0 .086.019.148.057.186.04.036.108.054.204.054a.56.56 0 00.17-.03v.186a.718.718 0 01-.254.042zm.478.33l.084-.531h.222l-.126.531h-.18zm1.877-.33c-.14 0-.246-.037-.318-.111a.447.447 0 01-.105-.315v-.831h-.216v-.195h.216v-.351l.246-.075v.426h.393l-.015.195h-.378v.819c0 .086.02.148.057.186.04.036.108.054.204.054a.56.56 0 00.171-.03v.186a.718.718 0 01-.255.042zm1.238 0c-.254 0-.444-.061-.57-.183-.126-.122-.19-.31-.19-.564 0-.228.055-.407.163-.537.11-.132.283-.198.519-.198.14 0 .255.026.345.078.092.05.16.12.204.21a.638.638 0 01.069.3v.267h-1.053a.57.57 0 00.069.255c.04.062.099.107.177.135.08.026.185.039.315.039.146 0 .28-.025.402-.075v.192a1 1 0 01-.21.06 1.323 1.323 0 01-.24.021zm-.513-.804h.834v-.117c0-.116-.031-.205-.093-.267-.06-.064-.16-.096-.3-.096-.17 0-.286.04-.348.12-.062.08-.093.2-.093.36zm1.846.804c-.092 0-.18-.006-.264-.018a1.096 1.096 0 01-.207-.048v-.216c.068.024.139.042.213.054.076.012.15.018.225.018a.672.672 0 00.27-.039c.054-.028.08-.079.08-.153 0-.054-.014-.095-.044-.123a.364.364 0 00-.132-.075 5.22 5.22 0 00-.225-.078 2.173 2.173 0 01-.22-.087.377.377 0 01-.15-.12.357.357 0 01-.053-.207c0-.126.044-.222.132-.288.088-.068.23-.102.426-.102.076 0 .149.006.219.018.07.01.13.023.183.039v.216a1.147 1.147 0 00-.363-.063.685.685 0 00-.27.039c-.054.024-.081.07-.081.138 0 .046.012.083.036.111a.334.334 0 00.117.069l.207.069c.11.034.199.069.267.105.068.036.118.08.15.132.032.052.048.12.048.204 0 .14-.05.243-.147.309-.098.064-.237.096-.417.096zm1.399 0c-.14 0-.246-.037-.318-.111a.447.447 0 01-.105-.315v-.831h-.216v-.195h.216v-.351l.246-.075v.426h.393l-.015.195h-.378v.819c0 .086.019.148.057.186.04.036.108.054.204.054a.56.56 0 00.171-.03v.186a.718.718 0 01-.255.042zm1.238 0c-.254 0-.444-.061-.57-.183-.126-.122-.19-.31-.19-.564 0-.228.055-.407.163-.537.11-.132.283-.198.519-.198.14 0 .255.026.345.078.092.05.16.12.204.21a.638.638 0 01.069.3v.267h-1.053a.57.57 0 00.069.255c.04.062.099.107.177.135.08.026.185.039.315.039.146 0 .28-.025.402-.075v.192a1 1 0 01-.21.06 1.323 1.323 0 01-.24.021zm-.513-.804h.834v-.117c0-.116-.031-.205-.093-.267-.06-.064-.16-.096-.3-.096-.17 0-.286.04-.348.12-.062.08-.093.2-.093.36zm1.995.804c-.2 0-.357-.055-.47-.165-.115-.112-.172-.297-.172-.555 0-.256.06-.447.177-.573a.632.632 0 01.48-.189c.178 0 .332.045.462.135v-.705h.246V12h-.21l-.018-.15a.653.653 0 01-.219.138.817.817 0 01-.276.042zm.063-.198a.608.608 0 00.228-.042.512.512 0 00.186-.129v-.774a.533.533 0 00-.177-.102.643.643 0 00-.23-.039c-.159 0-.276.046-.352.138-.076.09-.114.232-.114.426 0 .186.035.32.105.402.07.08.188.12.354.12zm1.02.528l.085-.531h.222l-.126.531h-.18zm2.082-.33a.844.844 0 01-.28-.042.661.661 0 01-.215-.138l-.018.15h-.21V9.978h.246v.705a.812.812 0 01.474-.135c.202 0 .36.058.474.174.114.114.17.299.17.555 0 .258-.056.448-.17.57-.114.122-.271.183-.471.183zm-.063-.198c.166 0 .284-.046.354-.138.07-.092.105-.231.105-.417 0-.194-.038-.331-.114-.411-.074-.08-.191-.12-.351-.12a.643.643 0 00-.231.039.533.533 0 00-.177.102v.774a.512.512 0 00.186.129c.07.028.146.042.228.042zm1.566.198c-.17 0-.299-.047-.387-.141-.086-.094-.129-.231-.129-.411v-.9h.246v.909c0 .118.03.205.087.261.06.056.152.084.276.084a.65.65 0 00.45-.18v-1.074h.246V12h-.222l-.015-.162a.866.866 0 01-.552.192zm1.345-1.785v-.225h.273v.225h-.273zM41.78 12v-1.227h-.219l.024-.195h.441V12h-.246zm.98.03a.33.33 0 01-.229-.075c-.054-.052-.08-.139-.08-.261V9.978h.245v1.689c0 .06.01.101.03.123.02.022.051.033.093.033a.51.51 0 00.135-.018V12a.422.422 0 01-.096.024.798.798 0 01-.099.006zm.921 0c-.14 0-.246-.037-.318-.111a.447.447 0 01-.105-.315v-.831h-.216v-.195h.216v-.351l.246-.075v.426h.393l-.015.195h-.378v.819c0 .086.02.148.057.186.04.036.108.054.204.054a.56.56 0 00.171-.03v.186a.718.718 0 01-.255.042zm1.323-.03v-1.227h-.213v-.195h.213v-.165c0-.142.05-.258.147-.348.1-.09.23-.135.387-.135.134 0 .241.015.321.045v.186a1.09 1.09 0 00-.258-.033c-.234 0-.35.095-.35.285v.165h.782V12h-.246v-1.227h-.537V12h-.246zm1.448 0v-1.422h.222l.018.18a1.603 1.603 0 01.528-.21v.192a1.729 1.729 0 00-.183.051c-.066.02-.129.043-.189.069a.858.858 0 00-.15.081V12h-.246zm1.47.03c-.092 0-.18-.006-.264-.018a1.096 1.096 0 01-.207-.048v-.216c.068.024.139.042.213.054.076.012.15.018.225.018a.672.672 0 00.27-.039c.054-.028.08-.079.08-.153 0-.054-.014-.095-.044-.123a.364.364 0 00-.132-.075 5.22 5.22 0 00-.225-.078 2.173 2.173 0 01-.22-.087.377.377 0 01-.15-.12.357.357 0 01-.053-.207c0-.126.044-.222.132-.288.088-.068.23-.102.426-.102.076 0 .149.006.219.018.07.01.13.023.183.039v.216a1.147 1.147 0 00-.363-.063.685.685 0 00-.27.039c-.054.024-.081.07-.081.138 0 .046.012.083.036.111a.334.334 0 00.117.069l.207.069c.11.034.199.069.267.105.068.036.118.08.15.132.032.052.048.12.048.204 0 .14-.05.243-.147.309-.098.064-.237.096-.417.096zm1.399 0c-.14 0-.246-.037-.318-.111a.447.447 0 01-.105-.315v-.831h-.216v-.195h.216v-.351l.246-.075v.426h.393l-.015.195h-.378v.819c0 .086.019.148.057.186.04.036.108.054.204.054a.56.56 0 00.17-.03v.186a.718.718 0 01-.254.042zm.478-.03v-.207h.222V12h-.222z" fill="#fff"/><path d="M2.08 16.29a.705.705 0 01.427-.635.78.78 0 01.316-.06c.138 0 .258.028.36.085.101.057.175.13.222.22l-.232.162a.292.292 0 00-.158-.155.52.52 0 00-.2-.042.414.414 0 00-.402.28.461.461 0 00.092.465.404.404 0 00.138.098.439.439 0 00.177.035.492.492 0 00.135-.02.393.393 0 00.132-.066c.04-.03.071-.069.093-.117l.25.148a.436.436 0 01-.15.177.833.833 0 01-.47.148.718.718 0 01-.678-.458.702.702 0 01-.052-.265zm2.2.72c-.11 0-.21-.02-.3-.058a.74.74 0 01-.233-.16.74.74 0 01-.15-.23.683.683 0 01.158-.752.736.736 0 01.53-.215c.11 0 .21.02.3.063.09.04.167.094.23.162a.711.711 0 01.202.488c0 .091-.018.18-.055.265a.735.735 0 01-.682.437zm-.43-.708a.466.466 0 00.115.306.407.407 0 00.135.1.463.463 0 00.182.035c.069 0 .13-.013.183-.038a.41.41 0 00.132-.102.454.454 0 00.083-.143.453.453 0 000-.323.432.432 0 00-.22-.235.419.419 0 00-.18-.037.407.407 0 00-.317.138.457.457 0 00-.113.3zM6.533 17v-.872l-.4.64h-.165l-.397-.64V17h-.303v-1.398h.328l.457.756.458-.756h.322V17h-.3zm.642 0v-1.398h.657c.095 0 .18.024.255.07a.51.51 0 01.175.178c.044.07.065.144.065.223a.48.48 0 01-.23.402.465.465 0 01-.252.067h-.368V17h-.302zm.302-.723h.348a.22.22 0 00.1-.022.177.177 0 00.07-.07.239.239 0 00.025-.112.199.199 0 00-.03-.113.19.19 0 00-.078-.068.202.202 0 00-.1-.024h-.335v.41zM8.28 17l.61-1.398h.248L9.744 17h-.32l-.14-.328h-.542l-.14.328h-.323zm.735-1.03l-.205.44h.403l-.198-.44zm1.928-.103h-.492V17h-.303v-1.133h-.495v-.265h1.29v.265zM11.154 17v-1.398h.303V17h-.303zm1.877-.358a.296.296 0 01-.067.198.41.41 0 01-.18.12.733.733 0 01-.248.04h-.74v-1.398h.823c.072 0 .133.018.185.053a.372.372 0 01.162.308c0 .065-.019.127-.057.187a.324.324 0 01-.16.133.383.383 0 01.205.127c.052.06.077.137.077.232zm-.305-.062a.146.146 0 00-.025-.082.167.167 0 00-.062-.06.154.154 0 00-.087-.025h-.453v.332h.438a.221.221 0 00.095-.02.182.182 0 00.067-.06.14.14 0 00.027-.085zm-.627-.717v.312h.393c.031 0 .06-.006.087-.018a.147.147 0 00.087-.14.142.142 0 00-.022-.082.126.126 0 00-.058-.053.173.173 0 00-.082-.02h-.405zM13.286 17v-1.398h.302V17h-.302zm.642 0v-1.398h.302v1.133h.715V17h-1.017zm1.216 0v-1.398h.302V17h-.302zm1.804-1.133h-.492V17h-.303v-1.133h-.495v-.265h1.29v.265zm.38-.265l.382.653.385-.652h.33l-.565.914V17h-.3v-.485l-.56-.913h.328zM19.123 17v-1.398h.658c.095 0 .18.024.255.07a.509.509 0 01.175.178c.043.07.065.144.065.223 0 .08-.021.155-.063.227a.465.465 0 01-.42.242h-.367V17h-.303zm.303-.723h.347a.22.22 0 00.1-.022.177.177 0 00.07-.07.238.238 0 00.025-.112.199.199 0 00-.03-.113.189.189 0 00-.077-.068.202.202 0 00-.1-.024h-.335v.41zm1.077.723v-1.398h.687c.097 0 .182.024.255.07a.509.509 0 01.175.178.437.437 0 01.063.223.433.433 0 01-.277.405l.364.522h-.345l-.325-.457h-.295V17h-.302zm.302-.723h.378c.036 0 .07-.008.1-.024a.189.189 0 00.07-.076.222.222 0 00-.006-.212.19.19 0 00-.075-.07.201.201 0 00-.102-.027h-.365v.41zm1.815.733c-.11 0-.21-.02-.3-.058a.74.74 0 01-.233-.16.74.74 0 01-.15-.23.683.683 0 01.158-.752.736.736 0 01.53-.215c.11 0 .21.02.3.063.09.04.166.094.23.162a.711.711 0 01.202.488c0 .091-.018.18-.055.265a.736.736 0 01-.682.437zm-.43-.708a.466.466 0 00.115.306.408.408 0 00.135.1.463.463 0 00.182.035c.069 0 .13-.013.183-.038a.41.41 0 00.132-.102.453.453 0 00.083-.143.453.453 0 000-.323.432.432 0 00-.22-.235.419.419 0 00-.18-.037.408.408 0 00-.318.138.456.456 0 00-.112.3zm2.035.708a.68.68 0 01-.502-.218.773.773 0 01-.15-.227.692.692 0 01.152-.765.732.732 0 01.52-.208c.14 0 .26.029.36.085a.55.55 0 01.226.22l-.23.17a.34.34 0 00-.15-.152.456.456 0 00-.386-.017.41.41 0 00-.212.235.48.48 0 00.002.342.44.44 0 00.09.14c.039.04.084.07.136.093a.453.453 0 00.38-.02.695.695 0 00.192-.15v.297a.59.59 0 01-.427.175zm.405-.515h-.31v-.22h.56V17h-.25v-.505zm.528.505v-1.398h.688c.096 0 .181.024.255.07a.51.51 0 01.175.178.438.438 0 01.062.223.436.436 0 01-.277.405l.365.522h-.345l-.325-.457h-.295V17h-.303zm.303-.723h.377c.037 0 .07-.008.1-.024a.19.19 0 00.07-.076.223.223 0 00-.005-.212.19.19 0 00-.075-.07.202.202 0 00-.102-.027h-.365v.41zm2.26.458V17h-1.078v-1.398H27.7v.265h-.755v.298h.653v.248h-.653v.322h.775zm1.16-.74a.728.728 0 00-.402-.135.36.36 0 00-.178.035.105.105 0 00-.058.098c0 .033.013.06.038.08.026.02.065.037.114.052.052.015.115.032.188.05.098.025.183.053.255.085.073.032.13.073.168.125.04.052.06.12.06.207a.412.412 0 01-.046.2.359.359 0 01-.125.13.544.544 0 01-.18.073.953.953 0 01-.21.022 1.23 1.23 0 01-.634-.177l.135-.262c.023.021.059.045.107.072a.867.867 0 00.398.095c.075 0 .131-.01.17-.033.04-.021.06-.051.06-.09a.1.1 0 00-.05-.087.474.474 0 00-.133-.058 5.768 5.768 0 00-.203-.055 1.246 1.246 0 01-.237-.085.377.377 0 01-.14-.122.349.349 0 01-.045-.183c0-.096.024-.177.073-.242a.463.463 0 01.2-.147.882.882 0 01.572-.002c.09.029.168.065.233.107l-.13.247zm1.325 0a.728.728 0 00-.402-.135.36.36 0 00-.178.035.105.105 0 00-.057.098c0 .033.012.06.037.08.027.02.065.037.115.052.052.015.114.032.188.05.098.025.183.053.255.085.073.032.129.073.167.125.04.052.06.12.06.207a.412.412 0 01-.045.2.359.359 0 01-.125.13.544.544 0 01-.18.073.953.953 0 01-.21.022 1.23 1.23 0 01-.635-.177l.135-.262c.024.021.06.045.108.072a.867.867 0 00.398.095c.074 0 .13-.01.17-.033.04-.021.06-.051.06-.09a.1.1 0 00-.05-.087.474.474 0 00-.133-.058 5.768 5.768 0 00-.203-.055 1.246 1.246 0 01-.237-.085.377.377 0 01-.14-.122.349.349 0 01-.045-.183c0-.096.024-.177.072-.242a.463.463 0 01.2-.147.882.882 0 01.573-.002c.09.029.167.065.232.107l-.13.247zM31.22 17v-.822l-.155.027v-.136l.317-.05V17h-.162zm.748.027a.457.457 0 01-.246-.059.348.348 0 01-.137-.17.768.768 0 01-.041-.269c0-.108.013-.2.04-.276a.34.34 0 01.135-.174.454.454 0 01.249-.06c.104 0 .186.02.247.06.063.04.107.098.134.174a.801.801 0 01.042.276.768.768 0 01-.042.268.34.34 0 01-.135.171.457.457 0 01-.246.059zm0-.14c.096 0 .163-.031.201-.094a.517.517 0 00.057-.264.555.555 0 00-.056-.274c-.037-.064-.104-.096-.202-.096-.098 0-.166.032-.204.096a.555.555 0 00-.055.274c0 .112.018.2.056.264.038.063.106.095.203.095zm.977.14a.457.457 0 01-.246-.059.348.348 0 01-.136-.17.768.768 0 01-.042-.269c0-.108.013-.2.04-.276a.34.34 0 01.135-.174.454.454 0 01.25-.06c.103 0 .186.02.247.06.062.04.106.098.133.174a.801.801 0 01.042.276.768.768 0 01-.042.268.34.34 0 01-.135.171.457.457 0 01-.246.059zm0-.14c.096 0 .163-.031.201-.094a.517.517 0 00.057-.264.555.555 0 00-.055-.274c-.037-.064-.105-.096-.203-.096-.098 0-.166.032-.204.096a.555.555 0 00-.055.274c0 .112.019.2.057.264.038.063.105.095.202.095zm.766-.427c-.071 0-.125-.02-.16-.059a.222.222 0 01-.053-.151.25.25 0 01.052-.168c.036-.042.09-.063.16-.063.072 0 .125.021.16.063a.25.25 0 01.052.168.222.222 0 01-.052.151c-.035.04-.088.059-.16.059zm-.066.54l.511-.966h.153l-.511.966h-.153zm.066-.639c.039 0 .067-.01.084-.03a.126.126 0 00.025-.084c0-.044-.009-.076-.027-.096-.017-.021-.044-.032-.082-.032-.038 0-.066.011-.084.032-.017.02-.026.052-.026.096 0 .036.009.064.026.084.017.02.045.03.084.03zm.537.654c-.071 0-.125-.02-.16-.059a.222.222 0 01-.053-.151.25.25 0 01.052-.168c.036-.042.09-.063.16-.063.072 0 .125.021.16.063a.25.25 0 01.052.168.222.222 0 01-.052.151c-.035.04-.088.059-.16.059zm0-.099c.039 0 .067-.01.084-.03a.126.126 0 00.025-.084c0-.044-.009-.076-.027-.096-.017-.021-.044-.032-.082-.032-.038 0-.066.011-.084.032-.017.02-.026.052-.026.096 0 .036.009.064.026.084.017.02.045.03.084.03z" fill="#fff" fill-opacity=".8"/><mask id="prefix__a" style="mask-type:alpha" maskUnits="userSpaceOnUse" x="2" y="18" width="60" height="2"><rect x="2" y="18" width="60" height="2" rx="1" fill="#fff"/></mask><g mask="url(#prefix__a)" fill-opacity=".8"><path fill="url(#prefix__paint1_linear_236_266)" d="M2 18h60v2H2z"/><path fill="url(#prefix__paint2_linear_236_266)" d="M2 18h60v2H2z"/></g><defs><linearGradient id="prefix__paint0_linear_236_266" x1="36" y1="8.067" x2="38.481" y2="22.351" gradientUnits="userSpaceOnUse"><stop stop-color="#302F34"/><stop offset="1" stop-color="#4A354E"/></linearGradient><linearGradient id="prefix__paint1_linear_236_266" x1="2" y1="19" x2="62" y2="19" gradientUnits="userSpaceOnUse"><stop stop-color="#A3A3A3"/><stop offset="1" stop-color="#8C8C8C"/></linearGradient><linearGradient id="prefix__paint2_linear_236_266" x1="2" y1="19" x2="62" y2="19" gradientUnits="userSpaceOnUse"><stop stop-color="#6BE69C"/><stop offset="1" stop-color="#38B369"/></linearGradient></defs></svg>