<svg width="14" height="14" viewBox="0 0 14 14" fill="none" xmlns="http://www.w3.org/2000/svg">
<g clip-path="url(#clip0_822_110)">
<path d="M0.5 8V10H1.5V11H2.5V12H3.5V13H4.5V14H6.5V13H7.5V11H8.5V10H9.5V9H10.5V8H12.5V7H13.5V5H12.5V4H11.5V3H10.5V2H9.5V1H8.5V0H7.5V1H6.5V3H5.5V4H4.5V5H3.5V6H2.5V7H1.5V8H0.5Z" fill="#38342A"/>
<path fill-rule="evenodd" clip-rule="evenodd" d="M1.5 10H2.5V11H3.5V12H4.5V13H5.5V12H6.5V11H7.5V10H8.5V9H9.5V8H10.5V6H11.5V4H10.5V3H9.5V2H8.5V1H7.5V3H6.5V4H5.5V5H4.5V6H3.5V7H2.5V8H1.5V10ZM8.5 4V3H7.5V4H8.5ZM9.5 5H10.5V6H9.5V5ZM9.5 5V4H8.5V5H9.5Z" fill="#DBD0B4"/>
<path d="M11.5 6V7H12.5V6H11.5Z" fill="#807A6D"/>
<path d="M7.5 2V3H8.5V2H7.5Z" fill="#C6BCA5"/>
<path d="M9.5 6V7H7.5V6H6.5V5H5.5V4H6.5V5H7.5V6H9.5Z" fill="#C6BCA5"/>
<path d="M7.5 8V9H5.5V8H4.5V7H5.5V8H7.5Z" fill="#C6BCA5"/>
<path d="M5.5 12V13H4.5V12H3.5V11H2.5V10H1.5V8L4.5 11H6.5V12H5.5Z" fill="#9A927E"/>
<path d="M1.5 9V8H2.5V9H3.5V10H4.5V11H5.5V12H4.5V11H3.5V10H2.5V9H1.5Z" fill="#AEA694"/>
<path d="M6.5 12H5.5V11H6.5V9H8.5V7H9.5V6H10.5V5H9.5V4H8.5V3H9.5V4H10.5V5H11.5V6H10.5V8H9.5V9H8.5V10H7.5V11H6.5V12Z" fill="#BCB29C"/>
</g>
<defs>
<clipPath id="clip0_822_110">
<rect width="14" height="14" fill="white"/>
</clipPath>
</defs>
</svg>
