<svg width="40" height="16" fill="none" xmlns="http://www.w3.org/2000/svg"><g clip-path="url(#prefix__clip0_222_2)"><path d="M8.903 6.294l1.622 6.05-2.54.68-1.62-6.05-.026-.096-.097.025-1.366.366-.097.026.026.097 1.622 6.05-1.856.498-2.51-9.37 9.368-2.51 2.51 9.37-1.855.497-1.621-6.051-.026-.097-.097.026-1.366.366-.096.026.025.097z" fill="url(#prefix__paint0_linear_222_2)" stroke="#89C9A3" stroke-width=".2"/><path d="M17.321 11.12c-.384 0-.73-.083-1.04-.248a1.884 1.884 0 01-.72-.712 2.183 2.183 0 01-.256-1.072c0-.4.086-.755.256-1.064.176-.31.416-.55.72-.72.31-.176.656-.264 1.04-.264.694 0 1.219.21 1.576.632V5.088h.808V11h-.784v-.56a2.08 2.08 0 01-.704.52c-.25.107-.549.16-.896.16zm.184-.64c.331 0 .619-.085.864-.256.251-.176.427-.41.528-.704v-.864a1.298 1.298 0 00-.52-.704 1.48 1.48 0 00-.872-.264c-.261 0-.498.059-.712.176a1.303 1.303 0 00-.496.496 1.486 1.486 0 00-.176.728c0 .272.059.515.176.728.123.213.288.379.496.496.214.112.451.168.712.168zm3.242-3.32h.784v.568c.394-.459.928-.688 1.6-.688.384 0 .728.085 1.032.256.309.17.549.41.72.72.176.304.264.659.264 1.064 0 .4-.088.755-.264 1.064-.171.31-.408.55-.712.72-.304.17-.651.256-1.04.256-.32 0-.62-.053-.896-.16a1.645 1.645 0 01-.68-.472v2.264h-.808V7.16zm2.2 3.32c.26 0 .496-.056.704-.168.213-.117.378-.283.496-.496a1.45 1.45 0 00.184-.736c0-.277-.062-.52-.184-.728a1.183 1.183 0 00-.496-.488 1.408 1.408 0 00-.704-.176c-.326 0-.614.085-.864.256a1.41 1.41 0 00-.528.704v.864c.09.293.264.528.52.704.256.176.546.264.872.264zm3.08-5.392h.809V11h-.808V5.088zm.817 3.968l1.768-1.896h.984L27.82 9.056 29.78 11h-.984l-1.952-1.944zm3.738-1.896h.768v.552c.182-.224.387-.392.616-.504.23-.112.467-.168.712-.168.31 0 .555.053.736.16a.903.903 0 01.4.472c.171-.208.38-.365.624-.472.251-.107.502-.16.752-.16.47 0 .809.12 1.017.36.207.235.312.584.312 1.048V11h-.785V8.552c0-.315-.058-.536-.175-.664-.118-.133-.318-.2-.6-.2-.406 0-.737.176-.992.528.01.08.016.21.016.392V11h-.784V8.552c0-.315-.054-.536-.16-.664-.107-.133-.3-.2-.577-.2-.405 0-.768.23-1.088.688V11h-.791V7.16z" fill="#000"/></g><defs><linearGradient id="prefix__paint0_linear_222_2" x1="6.636" y1="6.375" x2="10.291" y2="16.231" gradientUnits="userSpaceOnUse"><stop stop-color="#71EDB1"/><stop offset="1" stop-color="#28523E"/></linearGradient><clipPath id="prefix__clip0_222_2"><path fill="#fff" d="M0 0h40v16H0z"/></clipPath></defs></svg>