<svg viewBox="0 0 264 26" xmlns="http://www.w3.org/2000/svg">
    <path fill="#2bc552" d="M72.128,1 C76.2026667,1 79.3706667,1.56 81.632,2.68 C83.8933333,3.8 85.088,5.77866667 85.216,8.616 L85.216,8.616 L76.8,8.616 L76.776,8.42342857 C76.6472381,7.60628571 76.1965714,7.01447619 75.424,6.648 C74.592,6.25333333 73.4186667,6.056 71.904,6.056 C69.1093333,6.056 67.712,6.68533333 67.712,7.944 C67.712,8.47733333 67.92,8.872 68.336,9.128 C68.752,9.384 69.4186667,9.56533333 70.336,9.672 L70.336,9.672 L78.304,10.6 L78.7247901,10.6501235 C81.0759671,10.9562634 82.861037,11.6382222 84.08,12.696 C85.3706667,13.816 86.016,15.464 86.016,17.64 C86.016,19.688 85.4773333,21.2773333 84.4,22.408 C83.3226667,23.5386667 81.792,24.3173333 79.808,24.744 C77.824,25.1706667 75.296,25.384 72.224,25.384 C69.3013333,25.384 66.88,25.1546667 64.96,24.696 C63.04,24.2373333 61.536,23.3946667 60.448,22.168 C59.36,20.9413333 58.7733333,19.2186667 58.688,17 L58.688,17 L67.136,17 L67.1566875,17.2311875 C67.2835625,18.3630625 67.762,19.134 68.592,19.544 C69.4773333,19.9813333 70.784,20.2 72.512,20.2 C74.1546667,20.2 75.36,20.0293333 76.128,19.688 C76.896,19.3466667 77.28,18.8346667 77.28,18.152 C77.28,17.512 77.0186667,17.0426667 76.496,16.744 C75.9733333,16.4453333 75.2106667,16.232 74.208,16.104 L74.208,16.104 L67.072,15.208 L66.6476543,15.1546667 C64.2763292,14.8322963 62.4711111,14.1674074 61.232,13.16 C59.92,12.0933333 59.264,10.504 59.264,8.392 C59.2426667,5.66133333 60.3573333,3.74666667 62.608,2.648 C64.8586667,1.54933333 68.032,1 72.128,1 Z M100.768,1 C104.842667,1 108.010667,1.56 110.272,2.68 C112.533333,3.8 113.728,5.77866667 113.856,8.616 L113.856,8.616 L105.44,8.616 L105.416,8.42342857 C105.287238,7.60628571 104.836571,7.01447619 104.064,6.648 C103.232,6.25333333 102.058667,6.056 100.544,6.056 C97.7493333,6.056 96.352,6.68533333 96.352,7.944 C96.352,8.47733333 96.56,8.872 96.976,9.128 C97.392,9.384 98.0586667,9.56533333 98.976,9.672 L98.976,9.672 L106.944,10.6 L107.36479,10.6501235 C109.715967,10.9562634 111.501037,11.6382222 112.72,12.696 C114.010667,13.816 114.656,15.464 114.656,17.64 C114.656,19.688 114.117333,21.2773333 113.04,22.408 C111.962667,23.5386667 110.432,24.3173333 108.448,24.744 C106.464,25.1706667 103.936,25.384 100.864,25.384 C97.9413333,25.384 95.52,25.1546667 93.6,24.696 C91.68,24.2373333 90.176,23.3946667 89.088,22.168 C88,20.9413333 87.4133333,19.2186667 87.328,17 L87.328,17 L95.776,17 L95.7966875,17.2311875 C95.9235625,18.3630625 96.402,19.134 97.232,19.544 C98.1173333,19.9813333 99.424,20.2 101.152,20.2 C102.794667,20.2 104,20.0293333 104.768,19.688 C105.536,19.3466667 105.92,18.8346667 105.92,18.152 C105.92,17.512 105.658667,17.0426667 105.136,16.744 C104.613333,16.4453333 103.850667,16.232 102.848,16.104 L102.848,16.104 L95.712,15.208 L95.2876543,15.1546667 C92.9163292,14.8322963 91.1111111,14.1674074 89.872,13.16 C88.56,12.0933333 87.904,10.504 87.904,8.392 C87.8826667,5.66133333 88.9973333,3.74666667 91.248,2.648 C93.4986667,1.54933333 96.672,1 100.768,1 Z M13.2824856,0.94873811 L25.3033009,12.9695534 L13.2824856,24.9903687 L1.2616703,12.9695534 L13.2824856,0.94873811 Z M56.672,1.768 L56.672,7.24 L41.056,7.24 L41.056,10.472 L56.032,10.472 L56.032,15.528 L41.056,15.528 L41.056,19.176 L57.024,19.176 L57.024,24.616 L33.696,24.616 L33.696,1.768 L56.672,1.768 Z M140.192,1.768 L140.192,7.24 L124.576,7.24 L124.576,10.472 L139.552,10.472 L139.552,15.528 L124.576,15.528 L124.576,19.176 L140.544,19.176 L140.544,24.616 L117.216,24.616 L117.216,1.768 L140.192,1.768 Z M152.128,1.768 L162.656,15.528 L162.848,15.528 L162.848,1.768 L169.856,1.768 L169.856,24.616 L161.408,24.616 L150.656,10.568 L150.464,10.568 L150.464,24.616 L143.456,24.616 L143.456,1.768 L152.128,1.768 Z M196.864,1.768 L196.864,7.592 L188.224,7.592 L188.224,24.616 L180.864,24.616 L180.864,7.592 L172.192,7.592 L172.192,1.768 L196.864,1.768 Z M206.56,1.768 L206.56,24.616 L199.2,24.616 L199.2,1.768 L206.56,1.768 Z M228.448,1.768 L238.976,24.616 L230.944,24.616 L229.376,21.032 L217.728,21.032 L216.16,24.616 L208.096,24.616 L218.72,1.768 L228.448,1.768 Z M247.936,1.768 L247.936,18.856 L263.552,18.856 L263.552,24.616 L240.576,24.616 L240.576,1.768 L247.936,1.768 Z M223.648,7.912 L223.456,7.912 L220.032,15.72 L227.072,15.72 L223.648,7.912 Z"></path>
</svg>