<svg width="16" height="16" viewBox="0 0 16 16" fill="none" xmlns="http://www.w3.org/2000/svg">
<circle cx="8" cy="8" r="8" fill="#171717"/>
<path d="M11 5.65139V10.5C11 10.7761 10.7761 11 10.5 11C10.2239 11 10 10.7761 10 10.5V8.72956C10 7.95739 10 7.57131 9.81271 7.52277C9.62542 7.47424 9.43792 7.81174 9.06292 8.48674L8.43708 9.61326C8.24376 9.96123 8.1471 10.1352 8 10.1352C7.8529 10.1352 7.75624 9.96123 7.56292 9.61326L6.93708 8.48674C6.56208 7.81174 6.37458 7.47424 6.18729 7.52277C6 7.57131 6 7.95739 6 8.72956V10.5C6 10.7761 5.77614 11 5.5 11C5.22386 11 5 10.7761 5 10.5V5.65139C5 5.51064 5 5.44027 5.01407 5.38222C5.05818 5.20025 5.20025 5.05818 5.38222 5.01407C5.44027 5 5.51064 5 5.65139 5C5.73024 5 5.76967 5 5.80653 5.00552C5.92059 5.02262 6.02523 5.07862 6.10272 5.16404C6.12776 5.19164 6.14963 5.22445 6.19338 5.29006L7.58397 7.37596C7.77213 7.65819 7.8662 7.79931 8 7.79931C8.1338 7.79931 8.22787 7.65819 8.41603 7.37596L9.80662 5.29006L9.80663 5.29006C9.85037 5.22445 9.87224 5.19164 9.89728 5.16404C9.97477 5.07862 10.0794 5.02262 10.1935 5.00552C10.2303 5 10.2698 5 10.3486 5C10.4894 5 10.5597 5 10.6178 5.01407C10.7997 5.05818 10.9418 5.20025 10.9859 5.38222C11 5.44027 11 5.51064 11 5.65139Z" fill="white"/>
<mask id="mask0_114_2" style="mask-type:alpha" maskUnits="userSpaceOnUse" x="0" y="0" width="16" height="16">
<path d="M16 9L0 5V0H16V9Z" fill="black"/>
<path d="M16 11L0 7V16H16V11Z" fill="black"/>
</mask>
<g mask="url(#mask0_114_2)">
<circle cx="8" cy="8" r="7.5" stroke="#5DA545"/>
</g>
</svg>
