<svg width="16" height="16" fill="none" xmlns="http://www.w3.org/2000/svg"><g filter="url(#prefix__filter0_i_235_53)"><rect width="16" height="16" rx="5" fill="url(#prefix__paint0_linear_235_53)"/></g><rect x="1" y="1" width="14" height="14" rx="4" stroke="url(#prefix__paint1_linear_235_53)" stroke-width="2"/><mask id="prefix__a" style="mask-type:alpha" maskUnits="userSpaceOnUse" x="3" y="3" width="4" height="5"><path d="M3.553 6.776l1 .5c.22.11.329.165.447.165s.228-.055.447-.165l1-.5c.27-.134.404-.201.478-.322C7 6.333 7 6.183 7 5.882V4.618c0-.3 0-.451-.075-.572-.074-.12-.209-.188-.478-.322l-1-.5c-.22-.11-.329-.165-.447-.165s-.228.055-.447.165l-1 .5c-.27.134-.404.201-.478.322C3 4.167 3 4.317 3 4.618v1.264c0 .3 0 .451.075.572.074.12.209.188.478.322z" fill="#C4C4C4"/></mask><g mask="url(#prefix__a)"><path d="M5 7.5l-2-1V4l2 1v2.5z" fill="#77AD76"/><path d="M5 5L3 4l2-1 2 1-2 1z" fill="#85B47D"/><path d="M7 6.5l-2 1V5l2-1v2.5z" fill="#719D78"/></g><rect x="8" y="4" width="5" height="1" rx=".3" fill="#85B47D"/><rect x="8" y="6" width="4" height="1" rx=".3" fill="#85B47D"/><path fill-rule="evenodd" clip-rule="evenodd" d="M9.157 9.75h.093c.236 0 .354 0 .427-.073.073-.073.073-.191.073-.427v-.093c0-.102 0-.153-.019-.2a.532.532 0 00-.127-.153l-.687-.687a1.5 1.5 0 012.05 1.695c-.042.2-.063.3-.045.36.018.061.073.116.182.225l1.25 1.25a.5.5 0 01-.708.707l-1.25-1.25c-.108-.11-.163-.164-.224-.182-.06-.018-.16.003-.36.045A1.503 1.503 0 018 9.5c0-.207.042-.404.117-.583l.687.687a.532.532 0 00.154.127.532.532 0 00.2.019z" fill="#85B47D"/><mask id="prefix__b" style="mask-type:alpha" maskUnits="userSpaceOnUse" x="3" y="7" width="4" height="6"><path d="M4.553 7.776l-.83-.414c-.324-.162-.486-.243-.604-.17C3 7.265 3 7.446 3 7.809v3.573c0 .3 0 .451.075.572.074.12.209.188.478.322l1 .5c.22.11.329.165.447.165s.228-.055.447-.165l1-.5c.27-.134.404-.201.478-.322.075-.121.075-.271.075-.572V7.809c0-.363 0-.544-.119-.617-.118-.073-.28.008-.605.17l-.829.414c-.22.11-.329.165-.447.165s-.228-.055-.447-.165z" fill="#C4C4C4"/></mask><g mask="url(#prefix__b)"><path d="M5 14H3V7h2v7z" fill="#77AD76"/><path d="M5 7v7h2V7H5z" fill="#719D78"/></g><defs><linearGradient id="prefix__paint0_linear_235_53" x1="11" y1="7" x2="14" y2="16" gradientUnits="userSpaceOnUse"><stop stop-color="#fff"/><stop offset="1" stop-color="#CEE2DC"/></linearGradient><linearGradient id="prefix__paint1_linear_235_53" x1="12" y1="7.429" x2="14.857" y2="16" gradientUnits="userSpaceOnUse"><stop stop-color="#85B47D"/><stop offset="1" stop-color="#6CC193"/></linearGradient><filter id="prefix__filter0_i_235_53" x="0" y="0" width="16" height="16" filterUnits="userSpaceOnUse" color-interpolation-filters="sRGB"><feFlood flood-opacity="0" result="BackgroundImageFix"/><feBlend in="SourceGraphic" in2="BackgroundImageFix" result="shape"/><feColorMatrix in="SourceAlpha" values="0 0 0 0 0 0 0 0 0 0 0 0 0 0 0 0 0 0 127 0" result="hardAlpha"/><feMorphology radius="1" in="SourceAlpha" result="effect1_innerShadow_235_53"/><feOffset/><feGaussianBlur stdDeviation="1"/><feComposite in2="hardAlpha" operator="arithmetic" k2="-1" k3="1"/><feColorMatrix values="0 0 0 0 0 0 0 0 0 0 0 0 0 0 0 0 0 0 0.25 0"/><feBlend in2="shape" result="effect1_innerShadow_235_53"/></filter></defs></svg>