<svg width="40" height="16" viewBox="0 0 40 16" fill="none" xmlns="http://www.w3.org/2000/svg">
<rect width="40" height="16" rx="2" fill="#292929"/>
<rect x="3.5" y="3.5" width="9" height="9" rx="1.5" stroke="white"/>
<path d="M17.424 7.56C17.016 7.56 16.708 7.45333 16.5 7.24C16.292 7.024 16.188 6.73467 16.188 6.372V4.704H16.796V6.38C16.796 6.58267 16.852 6.73733 16.964 6.844C17.076 6.95067 17.2293 7.004 17.424 7.004C17.616 7.004 17.7667 6.95067 17.876 6.844C17.988 6.73733 18.044 6.58267 18.044 6.38V4.704H18.652V6.372C18.652 6.73467 18.5493 7.024 18.344 7.24C18.1387 7.45333 17.832 7.56 17.424 7.56ZM19.0518 5.58H19.6358V5.816C19.7238 5.71733 19.8278 5.644 19.9478 5.596C20.0704 5.54533 20.1984 5.52 20.3318 5.52C20.5931 5.52 20.7878 5.59067 20.9158 5.732C21.0464 5.87067 21.1118 6.05867 21.1118 6.296V7.5H20.5078V6.364C20.5078 6.116 20.3931 5.992 20.1638 5.992C20.0624 5.992 19.9678 6.01733 19.8798 6.068C19.7918 6.116 19.7171 6.188 19.6558 6.284V7.5H19.0518V5.58ZM21.5127 4.544H22.1167V6.392L22.8167 5.58H23.5167L22.7047 6.516L23.6167 7.5H22.9167L22.1167 6.636V7.5H21.5127V4.544ZM23.9541 5.58H24.5381V5.816C24.6261 5.71733 24.7301 5.644 24.8501 5.596C24.9728 5.54533 25.1008 5.52 25.2341 5.52C25.4954 5.52 25.6901 5.59067 25.8181 5.732C25.9488 5.87067 26.0141 6.05867 26.0141 6.296V7.5H25.4101V6.364C25.4101 6.116 25.2954 5.992 25.0661 5.992C24.9648 5.992 24.8701 6.01733 24.7821 6.068C24.6941 6.116 24.6194 6.188 24.5581 6.284V7.5H23.9541V5.58ZM27.491 7.56C27.259 7.56 27.055 7.51867 26.879 7.436C26.7057 7.35067 26.571 7.232 26.475 7.08C26.3817 6.92533 26.335 6.74533 26.335 6.54C26.335 6.34 26.3817 6.16267 26.475 6.008C26.571 5.85333 26.7057 5.73333 26.879 5.648C27.055 5.56267 27.259 5.52 27.491 5.52C27.7204 5.52 27.9217 5.56267 28.095 5.648C28.271 5.73333 28.4057 5.85333 28.499 6.008C28.595 6.16267 28.643 6.34 28.643 6.54C28.643 6.74533 28.595 6.92533 28.499 7.08C28.4057 7.232 28.2724 7.35067 28.099 7.436C27.9257 7.51867 27.723 7.56 27.491 7.56ZM27.491 7.088C27.6537 7.088 27.783 7.03867 27.879 6.94C27.975 6.83867 28.023 6.70533 28.023 6.54C28.023 6.36933 27.975 6.236 27.879 6.14C27.7857 6.04133 27.6564 5.992 27.491 5.992C27.3257 5.992 27.195 6.04133 27.099 6.14C27.003 6.236 26.955 6.36933 26.955 6.54C26.955 6.70533 27.003 6.83867 27.099 6.94C27.1977 7.03867 27.3284 7.088 27.491 7.088ZM28.6397 5.58H29.2437L29.5957 6.78L29.9397 5.58H30.4437L30.7917 6.78L31.1397 5.58H31.7437L31.1077 7.5H30.5597L30.1917 6.308L29.8237 7.5H29.2757L28.6397 5.58ZM31.9814 5.58H32.5654V5.816C32.6534 5.71733 32.7574 5.644 32.8774 5.596C33.0001 5.54533 33.1281 5.52 33.2614 5.52C33.5228 5.52 33.7174 5.59067 33.8454 5.732C33.9761 5.87067 34.0414 6.05867 34.0414 6.296V7.5H33.4374V6.364C33.4374 6.116 33.3228 5.992 33.0934 5.992C32.9921 5.992 32.8974 6.01733 32.8094 6.068C32.7214 6.116 32.6468 6.188 32.5854 6.284V7.5H31.9814V5.58ZM16.208 8.704H16.816V10.992H18.096V11.5H16.208V8.704ZM19.3309 11.56C19.0989 11.56 18.8949 11.5187 18.7189 11.436C18.5455 11.3507 18.4109 11.232 18.3149 11.08C18.2215 10.9253 18.1749 10.7453 18.1749 10.54C18.1749 10.34 18.2215 10.1627 18.3149 10.008C18.4109 9.85333 18.5455 9.73333 18.7189 9.648C18.8949 9.56267 19.0989 9.52 19.3309 9.52C19.5602 9.52 19.7615 9.56267 19.9349 9.648C20.1109 9.73333 20.2455 9.85333 20.3389 10.008C20.4349 10.1627 20.4829 10.34 20.4829 10.54C20.4829 10.7453 20.4349 10.9253 20.3389 11.08C20.2455 11.232 20.1122 11.3507 19.9389 11.436C19.7655 11.5187 19.5629 11.56 19.3309 11.56ZM19.3309 11.088C19.4935 11.088 19.6229 11.0387 19.7189 10.94C19.8149 10.8387 19.8629 10.7053 19.8629 10.54C19.8629 10.3693 19.8149 10.236 19.7189 10.14C19.6255 10.0413 19.4962 9.992 19.3309 9.992C19.1655 9.992 19.0349 10.0413 18.9389 10.14C18.8429 10.236 18.7949 10.3693 18.7949 10.54C18.7949 10.7053 18.8429 10.8387 18.9389 10.94C19.0375 11.0387 19.1682 11.088 19.3309 11.088ZM21.4357 11.56C21.2011 11.56 21.0091 11.5013 20.8597 11.384C20.7131 11.264 20.6397 11.1013 20.6397 10.896C20.6397 10.6827 20.7104 10.5173 20.8517 10.4C20.9931 10.28 21.1931 10.22 21.4517 10.22C21.5664 10.22 21.6757 10.232 21.7797 10.256C21.8837 10.28 21.9757 10.3133 22.0557 10.356V10.308C22.0557 10.188 22.0131 10.1 21.9277 10.044C21.8424 9.988 21.7117 9.96 21.5357 9.96C21.3011 9.96 21.0851 10.004 20.8877 10.092V9.652C20.9731 9.61467 21.0837 9.584 21.2197 9.56C21.3557 9.53333 21.4917 9.52 21.6277 9.52C21.9744 9.52 22.2331 9.592 22.4037 9.736C22.5744 9.87733 22.6597 10.076 22.6597 10.332V11.5H22.0917V11.324C21.9291 11.4813 21.7104 11.56 21.4357 11.56ZM21.5997 11.16C21.6984 11.16 21.7877 11.1413 21.8677 11.104C21.9477 11.0667 22.0104 11.0147 22.0557 10.948V10.756C21.9197 10.6653 21.7704 10.62 21.6077 10.62C21.4957 10.62 21.4091 10.644 21.3477 10.692C21.2891 10.7373 21.2597 10.8053 21.2597 10.896C21.2597 10.9813 21.2891 11.0467 21.3477 11.092C21.4064 11.1373 21.4904 11.16 21.5997 11.16ZM23.9956 11.56C23.7982 11.56 23.6222 11.5187 23.4676 11.436C23.3156 11.3507 23.1956 11.232 23.1076 11.08C23.0222 10.9253 22.9796 10.7467 22.9796 10.544C22.9796 10.344 23.0222 10.1667 23.1076 10.012C23.1929 9.85733 23.3129 9.73733 23.4676 9.652C23.6222 9.564 23.7982 9.52 23.9956 9.52C24.1396 9.52 24.2716 9.54 24.3916 9.58C24.5116 9.62 24.6129 9.67733 24.6956 9.752V8.544H25.2996V11.5H24.7156V11.292C24.6169 11.3853 24.5089 11.4533 24.3916 11.496C24.2769 11.5387 24.1449 11.56 23.9956 11.56ZM24.1516 11.092C24.2769 11.092 24.3876 11.0587 24.4836 10.992C24.5822 10.9253 24.6529 10.836 24.6956 10.724V10.36C24.6582 10.2507 24.5889 10.1627 24.4876 10.096C24.3889 10.0267 24.2769 9.992 24.1516 9.992C23.9889 9.992 23.8556 10.0427 23.7516 10.144C23.6502 10.2453 23.5996 10.3787 23.5996 10.544C23.5996 10.7093 23.6502 10.8427 23.7516 10.944C23.8556 11.0427 23.9889 11.092 24.1516 11.092ZM26.8237 11.56C26.4557 11.56 26.1664 11.472 25.9557 11.296C25.7451 11.1173 25.6397 10.868 25.6397 10.548C25.6397 10.2307 25.7331 9.98 25.9197 9.796C26.1091 9.612 26.3784 9.52 26.7277 9.52C26.9571 9.52 27.1517 9.56267 27.3117 9.648C27.4717 9.73333 27.5931 9.852 27.6757 10.004C27.7584 10.1533 27.7997 10.3227 27.7997 10.512V10.756H26.2157C26.2584 11.0013 26.4877 11.124 26.9037 11.124C27.0264 11.124 27.1531 11.1133 27.2837 11.092C27.4144 11.0707 27.5277 11.0413 27.6237 11.004V11.428C27.5304 11.468 27.4104 11.5 27.2637 11.524C27.1171 11.548 26.9704 11.56 26.8237 11.56ZM27.2277 10.364C27.2197 10.236 27.1717 10.1373 27.0837 10.068C26.9957 9.996 26.8744 9.96 26.7197 9.96C26.5677 9.96 26.4477 9.996 26.3597 10.068C26.2717 10.14 26.2237 10.2387 26.2157 10.364H27.2277ZM28.1338 9.58H28.7178V9.856C28.7951 9.76267 28.9031 9.692 29.0418 9.644C29.1804 9.59333 29.3378 9.568 29.5138 9.568V10.028C29.3298 10.028 29.1671 10.056 29.0258 10.112C28.8871 10.168 28.7911 10.2533 28.7378 10.368V11.5H28.1338V9.58Z" fill="white"/>
<path d="M7.15185 8.869C7.15185 8.71967 7.16585 8.57967 7.19385 8.449C7.22652 8.31367 7.28485 8.19 7.36885 8.078C7.45285 7.966 7.57185 7.86567 7.72585 7.777C7.79118 7.735 7.87518 7.686 7.97785 7.63C8.08518 7.574 8.18785 7.511 8.28585 7.441C8.38385 7.36633 8.46552 7.28 8.53085 7.182C8.60085 7.07933 8.63585 6.96267 8.63585 6.832C8.63585 6.70133 8.60319 6.59167 8.53785 6.503C8.47719 6.41433 8.39552 6.34667 8.29285 6.3C8.19485 6.25333 8.08752 6.23 7.97085 6.23C7.83552 6.23 7.71418 6.26033 7.60685 6.321C7.49952 6.377 7.40852 6.447 7.33385 6.531C7.25918 6.615 7.19618 6.70133 7.14485 6.79L6.53585 6.37C6.61985 6.17867 6.73418 6.01533 6.87885 5.88C7.02818 5.74467 7.19852 5.642 7.38985 5.572C7.58585 5.502 7.78885 5.467 7.99885 5.467C8.17619 5.467 8.35119 5.495 8.52385 5.551C8.69652 5.60233 8.85285 5.684 8.99285 5.796C9.13285 5.908 9.24485 6.05033 9.32885 6.223C9.41285 6.39567 9.45485 6.60333 9.45485 6.846C9.45485 6.99533 9.43619 7.12833 9.39885 7.245C9.36619 7.36167 9.31719 7.46667 9.25185 7.56C9.19118 7.64867 9.11419 7.73033 9.02085 7.805C8.92752 7.87967 8.82719 7.952 8.71985 8.022C8.59852 8.09667 8.47485 8.169 8.34885 8.239C8.22752 8.309 8.12485 8.393 8.04085 8.491C7.96152 8.58433 7.92185 8.71033 7.92185 8.869H7.15185ZM7.16585 10.5V9.534H7.94285V10.5H7.16585Z" fill="white"/>
</svg>
