<svg width="16" height="16" viewBox="0 0 16 16" fill="none" xmlns="http://www.w3.org/2000/svg">
<rect width="16" height="16" fill="#BF69EA"/>
<path d="M12.5 6.25C12.75 6.5 12.75 11.5 12.5 11.75C12.25 12 8.5 13.75 8 13.75C7.5 13.75 3.75 12 3.5 11.75C3.25 11.5 3.25 6.5 3.5 6.25H8H12.5Z" fill="#9954BB"/>
<path d="M3.5 5.25L8 12.75L12.5 5.25C12.5 5 8.5 3.25 8 3.25C7.5 3.25 3.5 5 3.5 5.25Z" fill="#F0E8F4"/>
<path d="M3.5 10.75C3.25 10.5 3.25 5.5 3.5 5.25L8 7.25V12.75C7.5 12.75 3.75 11 3.5 10.75Z" fill="#D7D0DB"/>
<path d="M12.5 10.75C12.75 10.5 12.75 5.5 12.5 5.25L8 7.25L8 12.75C8.5 12.75 12.25 11 12.5 10.75Z" fill="#E4DBE9"/>
</svg>
