<svg width="16" height="16" fill="none" xmlns="http://www.w3.org/2000/svg"><g clip-path="url(#prefix__clip0_640_110)"><g clip-path="url(#prefix__clip1_640_110)"><path d="M4.798 2.747a.26.26 0 00.26.26H5.5v.986h-.442a.26.26 0 000 .52H5.5v.757a.23.23 0 01-.23.23h-.757v-.442a.26.26 0 10-.52 0V5.5h-.986v-.442a.26.26 0 10-.519 0V5.5H1.73a.23.23 0 01-.23-.23V1.73a.23.23 0 01.23-.23h3.54a.23.23 0 01.23.23v.757h-.443a.26.26 0 00-.259.26z" fill="#9722FF"/><path d="M9.298 2.747a.26.26 0 00.26.26H10v.986h-.442a.26.26 0 000 .52H10v.757a.23.23 0 01-.23.23H6.23A.23.23 0 016 5.27v-.757h.441a.26.26 0 100-.52H6v-.986h.441a.26.26 0 100-.52H6V1.73a.23.23 0 01.23-.23h3.54a.23.23 0 01.23.23v.757h-.443a.26.26 0 00-.259.26z" fill="#DC29DD"/><path d="M14.5 1.73v3.54a.23.23 0 01-.23.23h-.757v-.442a.26.26 0 00-.502-.102.259.259 0 00-.018.102V5.5h-.986v-.442a.26.26 0 00-.502-.102.26.26 0 00-.018.102V5.5h-.757a.23.23 0 01-.23-.23v-.757h.442a.26.26 0 100-.52H10.5v-.986h.442a.26.26 0 000-.52H10.5V1.73a.23.23 0 01.23-.23h3.54a.23.23 0 01.23.23z" fill="#27A2FD"/><path d="M5.5 6.23v3.54a.23.23 0 01-.23.23h-.757v-.442a.26.26 0 10-.52 0V10h-.986v-.442a.26.26 0 10-.52 0V10H1.73a.23.23 0 01-.23-.23V6.23A.23.23 0 011.73 6h.757v.442a.26.26 0 00.52 0V6h.986v.442a.26.26 0 00.52 0V6h.757a.23.23 0 01.23.23z" fill="#DC29DD"/><path d="M9.298 7.247a.26.26 0 00.26.26H10v.986h-.442a.26.26 0 000 .52H10v.757a.23.23 0 01-.23.23h-.758v-.442a.26.26 0 10-.52 0V10h-.986v-.442a.26.26 0 10-.52 0V10H6.23A.23.23 0 016 9.77V6.23A.23.23 0 016.23 6h3.54a.23.23 0 01.23.23v.757h-.443a.26.26 0 00-.259.26z" fill="#27A2FD"/><path d="M14.5 6.23v3.54a.23.23 0 01-.23.23h-3.54a.23.23 0 01-.23-.23v-.758h.442a.26.26 0 100-.519H10.5v-.987h.442a.26.26 0 100-.519H10.5V6.23a.23.23 0 01.23-.23h.757v.442a.26.26 0 00.52 0V6h.986v.442a.26.26 0 00.52 0V6h.757a.23.23 0 01.23.23z" fill="#34F"/><path d="M4.798 11.747a.26.26 0 00.26.26H5.5v.986h-.442a.26.26 0 100 .52H5.5v.757a.23.23 0 01-.23.23H1.73a.23.23 0 01-.23-.23v-3.54a.23.23 0 01.23-.23h.757v.441a.26.26 0 10.52 0V10.5h.986v.441a.26.26 0 10.52 0V10.5h.756a.231.231 0 01.23.23v.757h-.442a.26.26 0 00-.259.26z" fill="#9722FF"/><path d="M10 10.73v3.54a.23.23 0 01-.23.23H6.23a.231.231 0 01-.23-.23v-.757h.441a.26.26 0 00.26-.26.26.26 0 00-.26-.26H6v-.986h.441a.26.26 0 00.246-.361.26.26 0 00-.246-.159H6v-.757a.23.23 0 01.23-.23h.757v.441a.26.26 0 10.52 0V10.5h.986v.441a.26.26 0 10.52 0V10.5h.756a.228.228 0 01.213.142.23.23 0 01.018.088z" fill="#34F"/><path d="M13.106 10.604l-2.503 2.503a.23.23 0 000 .326l2.503 2.503c.09.09.235.09.325 0l2.503-2.503a.23.23 0 000-.326l-2.503-2.503a.23.23 0 00-.325 0z" fill="#9722FF"/></g></g><defs><clipPath id="prefix__clip0_640_110"><path fill="#fff" d="M0 0h16v16H0z"/></clipPath><clipPath id="prefix__clip1_640_110"><path fill="#fff" d="M0 0h16v16H0z"/></clipPath></defs></svg>